<svg width="24" height="24" viewBox="0 0 24 24" fill="none" xmlns="http://www.w3.org/2000/svg">
<g clip-path="url(#clip0_554_3571)">
<circle cx="12" cy="12" r="12" fill="#489651"/>
<path d="M16.4545 7.45493C16.4438 7.46529 16.4338 7.47631 16.4245 7.48793L11.215 14.1254L8.07553 10.9844C7.86227 10.7857 7.5802 10.6775 7.28875 10.6827C6.9973 10.6878 6.71922 10.8059 6.5131 11.012C6.30698 11.2181 6.18891 11.4962 6.18377 11.7876C6.17863 12.0791 6.28681 12.3612 6.48553 12.5744L10.4545 16.5449C10.5615 16.6517 10.6888 16.7358 10.8289 16.7922C10.969 16.8487 11.1191 16.8763 11.2702 16.8735C11.4212 16.8707 11.5701 16.8375 11.7081 16.7759C11.846 16.7143 11.9701 16.6256 12.073 16.5149L18.061 9.02993C18.2649 8.81593 18.3764 8.53028 18.3714 8.23473C18.3663 7.93919 18.2452 7.6575 18.0341 7.45057C17.823 7.24364 17.539 7.1281 17.2434 7.12891C16.9478 7.12973 16.6645 7.24684 16.4545 7.45493Z" fill="white"/>
</g>
<defs>
<clipPath id="clip0_554_3571">
<rect width="24" height="24" fill="white"/>
</clipPath>
</defs>
</svg>
