<svg width="56" height="56" viewBox="0 0 56 56" fill="none" xmlns="http://www.w3.org/2000/svg">
<g clip-path="url(#clip0_154_8443)">
<path d="M52.5007 56H26.834C24.9043 56 23.334 54.4297 23.334 52.5C23.334 51.8163 23.523 51.1747 23.88 50.6357L36.6877 29.6777C37.292 28.6487 38.44 28 39.6673 28C40.8947 28 42.0427 28.6487 42.654 29.6963L55.478 50.6777C55.8116 51.1747 56.0007 51.8163 56.0007 52.5C56.0007 54.4297 54.4303 56 52.5007 56ZM39.6673 30.3333C39.2613 30.3333 38.888 30.541 38.6897 30.8747L25.847 51.8933C25.7187 52.0847 25.6673 52.2807 25.6673 52.5C25.6673 53.1417 26.1923 53.6667 26.834 53.6667H52.5007C53.1423 53.6667 53.6673 53.1417 53.6673 52.5C53.6673 52.2807 53.616 52.0847 53.5133 51.9353L40.6543 30.8933C40.4467 30.541 40.0733 30.3333 39.6673 30.3333Z" fill="#727B8B"/>
<path d="M39.6667 46.6667C39.0227 46.6667 38.5 46.144 38.5 45.5V36.1667C38.5 35.5227 39.0227 35 39.6667 35C40.3107 35 40.8333 35.5227 40.8333 36.1667V45.5C40.8333 46.144 40.3107 46.6667 39.6667 46.6667Z" fill="#727B8B"/>
<path d="M39.6667 51.3333C40.311 51.3333 40.8333 50.811 40.8333 50.1667C40.8333 49.5223 40.311 49 39.6667 49C39.0223 49 38.5 49.5223 38.5 50.1667C38.5 50.811 39.0223 51.3333 39.6667 51.3333Z" fill="#727B8B"/>
<path d="M43.1667 18.6668H8.16667C3.66333 18.6668 0 15.0035 0 10.5002C0 5.99683 3.66333 2.3335 8.16667 2.3335H43.1667C47.67 2.3335 51.3333 5.99683 51.3333 10.5002C51.3333 15.0035 47.67 18.6668 43.1667 18.6668ZM8.16667 4.66683C4.949 4.66683 2.33333 7.2825 2.33333 10.5002C2.33333 13.7178 4.949 16.3335 8.16667 16.3335H43.1667C46.3843 16.3335 49 13.7178 49 10.5002C49 7.2825 46.3843 4.66683 43.1667 4.66683H8.16667Z" fill="#727B8B"/>
<path d="M10.5 14C8.57033 14 7 12.4297 7 10.5C7 8.57033 8.57033 7 10.5 7C12.4297 7 14 8.57033 14 10.5C14 12.4297 12.4297 14 10.5 14ZM10.5 9.33333C9.85833 9.33333 9.33333 9.85833 9.33333 10.5C9.33333 11.1417 9.85833 11.6667 10.5 11.6667C11.1417 11.6667 11.6667 11.1417 11.6667 10.5C11.6667 9.85833 11.1417 9.33333 10.5 9.33333Z" fill="#727B8B"/>
<path d="M22.166 14C20.2363 14 18.666 12.4297 18.666 10.5C18.666 8.57033 20.2363 7 22.166 7C24.0957 7 25.666 8.57033 25.666 10.5C25.666 12.4297 24.0957 14 22.166 14ZM22.166 9.33333C21.5243 9.33333 20.9993 9.85833 20.9993 10.5C20.9993 11.1417 21.5243 11.6667 22.166 11.6667C22.8077 11.6667 23.3327 11.1417 23.3327 10.5C23.3327 9.85833 22.8077 9.33333 22.166 9.33333Z" fill="#727B8B"/>
<path d="M29.1667 32.6668H8.16667C3.66333 32.6668 0 29.0035 0 24.5002C0 22.3208 0.849333 20.2722 2.394 18.7275C3.93867 17.1828 5.98733 16.3335 8.16667 16.3335H43.1667C47.67 16.3335 51.3333 19.9968 51.3333 24.5002C51.3333 26.2525 50.7967 27.9115 49.777 29.2975C49.392 29.8225 48.6593 29.9298 48.146 29.5472C47.6257 29.1645 47.5137 28.4342 47.8963 27.9162C48.6173 26.9338 49 25.7508 49 24.5002C49 21.2825 46.3843 18.6668 43.1667 18.6668H8.16667C6.61267 18.6668 5.14733 19.2758 4.04367 20.3772C2.94 21.4785 2.33333 22.9462 2.33333 24.5002C2.33333 27.7178 4.949 30.3335 8.16667 30.3335H29.1667C29.8107 30.3335 30.3333 30.8562 30.3333 31.5002C30.3333 32.1442 29.8107 32.6668 29.1667 32.6668Z" fill="#727B8B"/>
<path d="M10.5 28C8.57033 28 7 26.4297 7 24.5C7 22.5703 8.57033 21 10.5 21C12.4297 21 14 22.5703 14 24.5C14 26.4297 12.4297 28 10.5 28ZM10.5 23.3333C9.85833 23.3333 9.33333 23.8583 9.33333 24.5C9.33333 25.1417 9.85833 25.6667 10.5 25.6667C11.1417 25.6667 11.6667 25.1417 11.6667 24.5C11.6667 23.8583 11.1417 23.3333 10.5 23.3333Z" fill="#727B8B"/>
<path d="M22.166 28C20.2363 28 18.666 26.4297 18.666 24.5C18.666 22.5703 20.2363 21 22.166 21C24.0957 21 25.666 22.5703 25.666 24.5C25.666 26.4297 24.0957 28 22.166 28ZM22.166 23.3333C21.5243 23.3333 20.9993 23.8583 20.9993 24.5C20.9993 25.1417 21.5243 25.6667 22.166 25.6667C22.8077 25.6667 23.3327 25.1417 23.3327 24.5C23.3327 23.8583 22.8077 23.3333 22.166 23.3333Z" fill="#727B8B"/>
<path d="M19.8333 46.6668H8.16667C3.66333 46.6668 0 43.0035 0 38.5002C0 36.3208 0.849333 34.2722 2.394 32.7275C3.93867 31.1828 5.98733 30.3335 8.16667 30.3335H29.1667C29.8107 30.3335 30.3333 30.8562 30.3333 31.5002C30.3333 32.1442 29.8107 32.6668 29.1667 32.6668H8.16667C6.61267 32.6668 5.14733 33.2758 4.04367 34.3772C2.94 35.4785 2.33333 36.9462 2.33333 38.5002C2.33333 41.7178 4.949 44.3335 8.16667 44.3335H19.8333C20.4773 44.3335 21 44.8562 21 45.5002C21 46.1442 20.4773 46.6668 19.8333 46.6668Z" fill="#727B8B"/>
<path d="M10.5 42C8.57033 42 7 40.4297 7 38.5C7 36.5703 8.57033 35 10.5 35C12.4297 35 14 36.5703 14 38.5C14 40.4297 12.4297 42 10.5 42ZM10.5 37.3333C9.85833 37.3333 9.33333 37.8583 9.33333 38.5C9.33333 39.1417 9.85833 39.6667 10.5 39.6667C11.1417 39.6667 11.6667 39.1417 11.6667 38.5C11.6667 37.8583 11.1417 37.3333 10.5 37.3333Z" fill="#727B8B"/>
<path d="M22.166 42C20.2363 42 18.666 40.4297 18.666 38.5C18.666 36.5703 20.2363 35 22.166 35C24.0957 35 25.666 36.5703 25.666 38.5C25.666 40.4297 24.0957 42 22.166 42ZM22.166 37.3333C21.5243 37.3333 20.9993 37.8583 20.9993 38.5C20.9993 39.1417 21.5243 39.6667 22.166 39.6667C22.8077 39.6667 23.3327 39.1417 23.3327 38.5C23.3327 37.8583 22.8077 37.3333 22.166 37.3333Z" fill="#727B8B"/>
</g>
<defs>
<clipPath id="clip0_154_8443">
<rect width="56" height="56" fill="white"/>
</clipPath>
</defs>
</svg>
