<svg width="127" height="128" viewBox="0 0 127 128" fill="none" xmlns="http://www.w3.org/2000/svg">
<g clip-path="url(#clip0_68_2290)">
<path d="M63.4995 126.698C98.1271 126.698 126.198 98.6271 126.198 63.9995C126.198 29.372 98.1271 1.30078 63.4995 1.30078C28.872 1.30078 0.800781 29.372 0.800781 63.9995C0.800781 98.6271 28.872 126.698 63.4995 126.698Z" fill="#F1F5F9"/>
<path d="M63.5 107.221C87.3701 107.221 106.721 87.8701 106.721 64C106.721 40.1299 87.3701 20.7793 63.5 20.7793C39.6299 20.7793 20.2793 40.1299 20.2793 64C20.2793 87.8701 39.6299 107.221 63.5 107.221Z" fill="#282858"/>
<path d="M63.4992 3.80859C30.3111 3.80859 3.30859 30.8098 3.30859 63.9992C3.30859 97.1886 30.3111 124.191 63.5005 124.191C96.6899 124.191 123.692 97.1925 123.692 63.9992C123.692 30.8059 96.6925 3.80859 63.4992 3.80859ZM63.4992 108.986C38.6942 108.986 18.5141 88.8054 18.5141 64.0005C18.5141 39.1956 38.6942 19.0141 63.4992 19.0141C88.3041 19.0141 108.484 39.1942 108.484 63.9992C108.484 88.8041 88.3041 108.984 63.4992 108.984V108.986Z" fill="#282858"/>
<path d="M63.5 127.5C28.4863 127.5 0 99.0137 0 64C0 28.9863 28.4863 0.5 63.5 0.5C98.5137 0.5 127 28.9863 127 64C127 99.0137 98.5137 127.5 63.5 127.5ZM63.5 2.10381C29.3697 2.10381 1.60381 29.8697 1.60381 64C1.60381 98.1303 29.371 125.896 63.5 125.896C97.629 125.896 125.396 98.129 125.396 64C125.396 29.871 97.6303 2.10381 63.5 2.10381Z" fill="#282858"/>
<g filter="url(#filter0_d_68_2290)">
<path d="M20.2156 43.2884L18.8232 47.1132C18.7801 47.2307 18.6966 47.2659 18.57 47.2189L16.7287 46.4164C16.6413 46.3851 16.6035 46.3211 16.6165 46.2272C16.6478 45.9296 16.6035 45.6334 16.486 45.3359C16.3686 45.0396 16.1937 44.7617 15.9627 44.5007C15.7317 44.241 15.4629 44.0048 15.1536 43.7934C14.8443 43.582 14.5155 43.4123 14.1645 43.2844C13.8043 43.154 13.4285 43.0717 13.0383 43.0404C12.6481 43.0091 12.2762 43.0443 11.9251 43.1474C11.5728 43.2505 11.2531 43.4345 10.9647 43.6981C10.6763 43.963 10.4492 44.318 10.2861 44.7656C10.119 45.2236 10.0538 45.6451 10.089 46.0327C10.1243 46.4203 10.2404 46.7687 10.4361 47.0767C10.6319 47.3847 10.8903 47.6548 11.2074 47.8858C11.5258 48.1181 11.8847 48.306 12.2827 48.4508C12.575 48.5565 12.8986 48.6283 13.2549 48.6635C13.6111 48.7001 13.9635 48.6923 14.3119 48.6427C14.6603 48.5931 14.9905 48.4952 15.3024 48.3504C15.6143 48.2055 15.8727 48.0045 16.0762 47.7475C16.1115 47.6835 16.1715 47.6666 16.2589 47.6992L18.1799 48.2825C18.3064 48.3282 18.3495 48.4052 18.3117 48.5122L16.9571 52.2353C16.9179 52.3423 16.8396 52.3749 16.7235 52.3318L14.6943 51.5932C14.5781 51.5515 14.539 51.4758 14.5781 51.3688L14.6956 51.0477C14.706 51.0177 14.7295 50.9916 14.766 50.9655C14.8026 50.9407 14.843 50.9303 14.8848 50.9342C15.1262 50.9668 15.3611 50.9734 15.5895 50.9512C15.8179 50.9303 15.9653 50.8259 16.0332 50.6419L16.6609 48.9193L16.4716 48.8502C16.2054 49.2169 15.8805 49.5274 15.4955 49.7845C15.1106 50.0416 14.6956 50.2321 14.2532 50.3574C13.8108 50.4827 13.3606 50.5453 12.9039 50.544C12.4471 50.544 12.0139 50.4683 11.6054 50.3196C11.1095 50.1395 10.658 49.872 10.2508 49.5209C9.84499 49.1686 9.52789 48.7458 9.30082 48.2499C9.07375 47.754 8.9537 47.1837 8.93934 46.5391C8.92629 45.8957 9.0607 45.1832 9.34388 44.4054C9.63098 43.6172 9.98463 42.9856 10.4061 42.5106C10.8263 42.0356 11.2831 41.6898 11.7764 41.4718C12.2683 41.2539 12.7825 41.1521 13.3175 41.1652C13.8526 41.1782 14.3785 41.2787 14.8939 41.4666C15.2933 41.6115 15.6652 41.8164 16.0097 42.08C16.3542 42.3436 16.6517 42.6555 16.901 43.0156C17.1502 43.3758 17.3395 43.779 17.47 44.2227C17.6004 44.6664 17.6487 45.148 17.6148 45.6647L17.8197 45.7391L18.4735 43.9435C18.5439 43.749 18.4983 43.5728 18.3351 43.4136C18.172 43.2557 17.988 43.1109 17.7818 42.9804C17.6983 42.9386 17.6748 42.8642 17.714 42.7572L17.8366 42.4219C17.8758 42.3149 17.9541 42.2822 18.0702 42.3253L20.0995 43.0639C20.2169 43.107 20.2548 43.1814 20.2169 43.2884H20.2156Z" fill="#F1F5F9"/>
<path d="M26.5509 33.4038L24.3051 36.7237C24.2359 36.8268 24.1485 36.8438 24.0467 36.7733L23.8027 36.6076C23.7087 36.5436 23.6957 36.4601 23.7661 36.357L23.8183 36.28C23.8797 36.1717 23.9306 36.0686 23.971 35.9707C24.0115 35.8729 24.0284 35.775 24.0206 35.6758C24.0128 35.5766 23.9749 35.4761 23.9058 35.3731C23.8379 35.2713 23.7178 35.1616 23.5456 35.0455L17.6262 31.0405L15.6153 34.0133L21.5333 38.0182C21.8256 38.2153 22.0749 38.2753 22.2837 38.1983C22.4925 38.1213 22.6987 37.9321 22.9022 37.632C22.9714 37.5289 23.0536 37.5093 23.1489 37.5732L23.3929 37.739C23.496 37.8094 23.513 37.8956 23.4425 37.9974L21.1966 41.3172C21.1327 41.4112 21.0492 41.4242 20.9461 41.3551L20.7021 41.1893C20.6081 41.1254 20.5924 41.0471 20.6564 40.9518C20.8247 40.7026 20.9108 40.4651 20.9148 40.2367C20.9187 40.0083 20.7712 39.793 20.4711 39.5894L15.0032 35.8898C14.7462 35.7163 14.5191 35.681 14.3233 35.7854C14.1276 35.8911 13.9475 36.0634 13.7857 36.3035C13.7217 36.3975 13.6435 36.4131 13.5482 36.3492L13.2781 36.1665C13.175 36.0973 13.1554 36.0151 13.2193 35.9211L18.5045 28.1109C18.5684 28.0169 18.6519 28.0039 18.755 28.073L19.0252 28.2557C19.1191 28.3197 19.1348 28.3993 19.0708 28.4932C18.8385 28.8364 18.7642 29.117 18.8477 29.3362C18.9312 29.5555 19.123 29.7669 19.4232 29.9692L24.6078 33.4782C24.9002 33.6753 25.1559 33.7275 25.3765 33.6322C25.597 33.5383 25.8084 33.3399 26.012 33.0398C26.0759 32.9458 26.1555 32.9301 26.2495 32.9941L26.4935 33.1598C26.5966 33.229 26.6162 33.3112 26.5522 33.4052L26.5509 33.4038Z" fill="#F1F5F9"/>
<path d="M31.5908 24.4446L33.346 26.5886C33.4243 26.6721 33.4178 26.7557 33.3264 26.8405L28.1026 31.7394C28.0426 31.7968 27.9799 31.8124 27.9147 31.7876C27.8494 31.7641 27.8103 31.7146 27.7985 31.6415L26.8903 25.6778L21.613 25.0253C21.5399 25.0227 21.4903 24.9848 21.4629 24.9104C21.4355 24.836 21.4525 24.7708 21.5138 24.7147L26.7715 19.7832C26.8616 19.6984 26.9464 19.6971 27.0247 19.7806L28.6037 21.2604C28.6964 21.3583 28.7003 21.447 28.6168 21.524L28.3675 21.7576C28.3453 21.7785 28.3114 21.7929 28.267 21.7981C28.2227 21.8033 28.1822 21.7955 28.147 21.772C27.9538 21.6415 27.775 21.5527 27.6119 21.5071C27.4488 21.4614 27.2896 21.4588 27.1343 21.4979C26.979 21.5371 26.8159 21.6193 26.6423 21.7459C26.4701 21.8725 26.2769 22.0356 26.0655 22.2326L24.4343 23.7634C25.092 23.8286 25.738 23.8965 26.3735 23.9682C27.009 24.04 27.655 24.1079 28.3127 24.1731C28.408 24.1836 28.4641 24.2371 28.4836 24.3323L29.1061 28.9245L31.1001 27.0545C31.2815 26.8849 31.4042 26.7126 31.4681 26.539C31.5321 26.3655 31.5542 26.188 31.5347 26.0079C31.5151 25.8278 31.4603 25.6451 31.3702 25.4585C31.2815 25.2719 31.1771 25.0788 31.0597 24.8765C31.0453 24.8465 31.0414 24.8086 31.0466 24.7604C31.0518 24.7134 31.0662 24.6781 31.0884 24.6573L31.3376 24.4237C31.4211 24.3454 31.5047 24.3519 31.5895 24.4433L31.5908 24.4446Z" fill="#F1F5F9"/>
<path d="M44.1279 12.8401C44.2963 13.2068 44.3915 13.5618 44.4124 13.9063C44.4333 14.2495 44.3876 14.5731 44.2767 14.8746C44.1645 15.1774 44 15.4579 43.7834 15.7163C43.5668 15.976 43.3058 16.2096 43.003 16.4171C42.742 16.5946 42.4458 16.7733 42.1131 16.9547C41.7803 17.1361 41.4188 17.3227 41.0273 17.5133L41.9878 19.6025C42.083 19.81 42.1718 19.9536 42.2553 20.0358C42.3375 20.118 42.4262 20.1597 42.5189 20.1623C42.5554 20.1689 42.6168 20.1663 42.7029 20.1545C42.789 20.1441 42.8778 20.1258 42.9691 20.101C43.0605 20.0762 43.1453 20.0514 43.2249 20.0253C43.3045 20.0005 43.358 19.981 43.3867 19.9679C43.4898 19.9209 43.5655 19.9483 43.6138 20.0514L43.7364 20.3203C43.7886 20.4325 43.7625 20.5134 43.6594 20.5604L40.2156 22.1433C40.1021 22.1955 40.0199 22.1642 39.969 22.0519L39.8463 21.7844C39.8032 21.6905 39.8267 21.6174 39.9168 21.5639L40.6071 21.0589C40.6554 20.991 40.6737 20.8997 40.6619 20.7861C40.6489 20.6726 40.5941 20.5069 40.4936 20.2902L37.834 14.5027C37.7049 14.2208 37.5404 14.0251 37.3421 13.9167C37.1437 13.8084 36.8566 13.8411 36.4808 14.0133C36.3673 14.0655 36.2877 14.0394 36.2394 13.9363L36.1037 13.6401C36.0515 13.5279 36.0828 13.4443 36.195 13.3935L39.3282 11.9528C40.0434 11.6239 40.6711 11.4334 41.21 11.3786C41.749 11.3238 42.2122 11.359 42.5998 11.483C42.9874 11.6069 43.3071 11.7936 43.5577 12.0428C43.8082 12.2921 44 12.5583 44.1292 12.8401H44.1279ZM42.562 13.5253L42.5359 13.4691C42.4067 13.1873 42.2148 12.9811 41.9617 12.8519C41.7085 12.7227 41.4371 12.6483 41.1487 12.6274C40.859 12.6066 40.5667 12.6274 40.2704 12.6888C39.9742 12.7501 39.7223 12.8297 39.5148 12.9237L39.1625 13.0855C39.0686 13.1285 39.0255 13.1599 39.0346 13.1781L40.598 16.5802C41.0586 16.3688 41.4488 16.1613 41.7659 15.959C42.083 15.7568 42.3271 15.5388 42.5006 15.3052C42.6729 15.0716 42.7642 14.8133 42.776 14.5288C42.7877 14.2443 42.7159 13.9089 42.562 13.524V13.5253Z" fill="#F1F5F9"/>
<path d="M54.8995 13.904L55.3863 16.6327C55.4137 16.7436 55.3667 16.8128 55.2467 16.8441L48.2964 18.5719C48.2155 18.5915 48.1528 18.5758 48.1084 18.5223C48.0628 18.4688 48.0536 18.4075 48.0784 18.337L50.1964 12.6878L45.9096 9.5428C45.8469 9.50495 45.8221 9.44753 45.8339 9.36924C45.8469 9.29094 45.8926 9.24265 45.9735 9.22177L52.9695 7.48224C53.0908 7.45223 53.1639 7.49268 53.1913 7.60361L53.8477 9.66546C53.8803 9.79596 53.8412 9.87557 53.7303 9.90297L53.3988 9.98518C53.3688 9.99301 53.3323 9.98779 53.2918 9.97213C53.25 9.95647 53.22 9.92907 53.1992 9.89122C53.0934 9.68243 52.9812 9.51931 52.8612 9.39925C52.7411 9.27919 52.6028 9.19959 52.4488 9.15783C52.2948 9.11607 52.1108 9.10824 51.8981 9.13434C51.6854 9.16044 51.4387 9.20872 51.1569 9.27789L48.9854 9.81815C49.527 10.1953 50.0581 10.5711 50.5775 10.943C51.0968 11.3163 51.628 11.6908 52.1695 12.0679C52.2478 12.1227 52.2713 12.1971 52.2413 12.2898L50.5435 16.6014L53.1965 15.9424C53.438 15.8824 53.6285 15.7923 53.7694 15.6723C53.9104 15.5522 54.0161 15.4087 54.0865 15.2416C54.157 15.0746 54.1988 14.888 54.2118 14.6818C54.2249 14.4756 54.2288 14.2564 54.2236 14.0228C54.2262 13.9901 54.2405 13.9549 54.2692 13.9158C54.2966 13.8766 54.3253 13.8531 54.3554 13.8453L54.6868 13.7631C54.7977 13.7357 54.8682 13.7827 54.8982 13.9027L54.8995 13.904Z" fill="#F1F5F9"/>
<path d="M67.1936 16.1718L63.186 16.2527C63.0621 16.2553 62.9981 16.194 62.9955 16.07L62.989 15.7751C62.9864 15.6615 63.0477 15.6028 63.1717 15.6002H63.2643C63.3883 15.5859 63.5018 15.5676 63.6049 15.5454C63.708 15.5232 63.7981 15.4788 63.8737 15.4162C63.9507 15.3523 64.0108 15.2635 64.0551 15.1487C64.0995 15.0339 64.1191 14.8733 64.1152 14.6659L63.9703 7.52112L60.3829 7.5929L60.5278 14.7376C60.5343 15.09 60.6296 15.3288 60.8136 15.4541C60.9976 15.5793 61.2703 15.6394 61.6331 15.6315C61.7571 15.6289 61.821 15.685 61.8223 15.7986L61.8289 16.0935C61.8315 16.2175 61.7701 16.2814 61.6462 16.284L57.6386 16.3649C57.5251 16.3675 57.4663 16.3062 57.4637 16.1822L57.4572 15.8873C57.4546 15.7738 57.5107 15.715 57.6242 15.7124C57.9244 15.7059 58.1697 15.6394 58.3576 15.5115C58.5468 15.3836 58.6382 15.1383 58.6304 14.7755L58.4973 8.17361C58.4907 7.86302 58.3876 7.65814 58.1893 7.55897C57.9909 7.45979 57.7456 7.41281 57.4559 7.41803C57.3424 7.42064 57.2836 7.36452 57.281 7.25099L57.2745 6.92475C57.2719 6.80078 57.328 6.73683 57.4415 6.73553L66.87 6.545C66.9835 6.54239 67.0422 6.60373 67.0448 6.7277L67.0514 7.05394C67.054 7.16747 66.9979 7.2262 66.8843 7.2275C66.4706 7.23533 66.1979 7.33712 66.0674 7.53156C65.9369 7.726 65.8756 8.00396 65.8821 8.36674L66.0087 14.6267C66.0152 14.979 66.1222 15.2179 66.3258 15.3431C66.5307 15.4684 66.8139 15.5271 67.1766 15.5206C67.2902 15.518 67.3489 15.5741 67.3515 15.6876L67.358 15.9826C67.3606 16.1065 67.3045 16.1705 67.191 16.1718H67.1936Z" fill="#F1F5F9"/>
<path d="M78.7244 18.4907L74.8173 17.5994C74.6959 17.572 74.6489 17.4976 74.6763 17.3763L74.7416 17.0879C74.7664 16.9769 74.8408 16.9352 74.9608 16.9626L75.0522 16.9835C75.1761 17.0017 75.2897 17.0122 75.3954 17.0148C75.5011 17.0174 75.599 16.9978 75.6877 16.9535C75.7777 16.9104 75.8573 16.8386 75.9278 16.7381C75.9983 16.6376 76.057 16.4863 76.1027 16.284L77.6921 9.31675L74.1935 8.5181L72.604 15.4854C72.5257 15.8286 72.561 16.0843 72.7084 16.2501C72.8559 16.4171 73.1065 16.5398 73.4601 16.6207C73.5815 16.6481 73.6284 16.7172 73.6037 16.8282L73.5384 17.1166C73.511 17.2379 73.4366 17.2849 73.3153 17.2575L69.4069 16.3662C69.2959 16.3414 69.2542 16.267 69.2816 16.147L69.3468 15.8599C69.3716 15.749 69.4408 15.7059 69.5517 15.7307C69.844 15.7972 70.0985 15.792 70.3125 15.7137C70.5265 15.6354 70.674 15.4188 70.7549 15.0652L72.2243 8.62772C72.2935 8.32497 72.2439 8.10182 72.0742 7.95566C71.9059 7.81081 71.6801 7.70641 71.3969 7.64247C71.286 7.61767 71.243 7.54851 71.2677 7.43759L71.3408 7.11917C71.3682 6.99781 71.4374 6.94953 71.5483 6.97563L80.7419 9.07402C80.8528 9.09882 80.8945 9.1732 80.8671 9.29326L80.7941 9.61167C80.7693 9.72259 80.7001 9.76566 80.5892 9.74086C80.1846 9.64821 79.8962 9.68083 79.7227 9.83743C79.5491 9.99403 79.4212 10.2498 79.3403 10.6021L77.9479 16.7055C77.8696 17.0487 77.914 17.3058 78.0823 17.4767C78.2507 17.6477 78.5117 17.7743 78.864 17.8539C78.9749 17.8787 79.018 17.9478 78.9932 18.0588L78.9279 18.3472C78.9005 18.4685 78.8314 18.5168 78.7204 18.4907H78.7244Z" fill="#F1F5F9"/>
<path d="M94.6761 15.9889L94.5352 16.0907C94.2246 16.126 94.0067 16.2056 93.884 16.3282C93.7613 16.4509 93.6282 16.6493 93.4834 16.9246L93.3685 17.1452C93.0801 17.6724 92.797 18.103 92.5164 18.4358C92.2371 18.7685 91.9109 18.9982 91.5403 19.1261C91.1697 19.2527 90.7195 19.2697 90.1909 19.1731C89.6624 19.0778 89.0047 18.8638 88.2191 18.5336L87.0433 20.7769C86.8946 21.0614 86.8567 21.2845 86.9298 21.445C87.0029 21.6069 87.2143 21.7778 87.5627 21.9605C87.6723 22.0179 87.7011 22.0975 87.6489 22.198L87.5118 22.459C87.4544 22.5686 87.3709 22.5947 87.26 22.5373L83.8201 20.7338C83.7104 20.6764 83.6843 20.5916 83.7418 20.482L83.8788 20.221C83.9323 20.1205 84.0132 20.0983 84.1228 20.157C84.4895 20.3489 84.7609 20.418 84.9358 20.3632C85.1107 20.3084 85.2634 20.1583 85.3926 19.9104L86.5683 17.6671C85.9511 17.2613 85.4565 16.8946 85.0846 16.5644C84.7127 16.2356 84.4595 15.8885 84.3225 15.5244C84.1855 15.1603 84.1659 14.7584 84.2624 14.3173C84.359 13.8762 84.573 13.3399 84.9045 12.7069C85.1068 12.322 85.2242 12.0088 85.2555 11.7687C85.2882 11.5286 85.2046 11.3093 85.0037 11.111C84.9397 11.0535 84.9293 10.9844 84.9724 10.9022L85.1237 10.6138C85.1811 10.5041 85.2647 10.478 85.3756 10.5355C86.8802 11.3237 87.226 12.4942 86.413 14.0432C86.1155 14.6122 85.9954 15.1251 86.0529 15.5831C86.1116 16.0398 86.4378 16.4366 87.0342 16.7732L88.4919 13.9936C88.5741 13.8384 88.6276 13.7052 88.6563 13.5969C88.6837 13.4886 88.6811 13.3934 88.6485 13.3111C88.6145 13.2302 88.5428 13.1506 88.4305 13.0749C88.3183 12.998 88.1656 12.9105 87.9738 12.8087C87.8642 12.7513 87.8355 12.6717 87.8877 12.5712L88.039 12.2828C88.0965 12.1732 88.18 12.1471 88.2909 12.2045L91.8404 14.0654C91.9409 14.1189 91.9631 14.1998 91.9057 14.3094L91.7543 14.5992C91.7008 14.6996 91.6238 14.7244 91.5233 14.6709C91.1384 14.4687 90.8473 14.3812 90.6529 14.4073C90.4572 14.4334 90.2888 14.5848 90.144 14.8601L88.6863 17.6397C89.3336 17.9438 89.8791 17.996 90.3227 17.7963C90.7664 17.5967 91.1331 17.2208 91.4215 16.6715C91.6864 16.1677 91.9618 15.7971 92.2489 15.5622C92.536 15.3273 92.8231 15.1799 93.1115 15.1198C93.3999 15.0611 93.6844 15.0689 93.9662 15.1472C94.2468 15.2242 94.5117 15.3273 94.7597 15.4578C94.8601 15.51 94.8823 15.5922 94.8249 15.7019L94.6735 15.9916L94.6761 15.9889Z" fill="#F1F5F9"/>
<path d="M96.7827 29.5028L97.7862 27.9473C97.8188 27.8899 97.8658 27.8611 97.9284 27.8611C97.9911 27.8611 98.0433 27.8833 98.085 27.9303L98.4073 28.2879C98.4556 28.3414 98.4687 28.3857 98.4452 28.421C98.423 28.7055 98.4243 28.9704 98.4491 29.2131C98.4726 29.4558 98.5287 29.692 98.6174 29.9204C98.7049 30.1488 98.8249 30.3784 98.9789 30.6094C99.1316 30.8404 99.3234 31.0831 99.5531 31.3376C99.8859 31.7056 100.249 31.8987 100.64 31.9157C101.032 31.9314 101.423 31.763 101.815 31.4094C102.121 31.1314 102.254 30.7947 102.213 30.4006C102.171 30.0065 101.992 29.5041 101.679 28.8947C101.479 28.5032 101.328 28.1156 101.226 27.7333C101.124 27.3509 101.079 26.979 101.09 26.6201C101.101 26.2612 101.175 25.922 101.312 25.6035C101.449 25.2838 101.661 24.9954 101.945 24.7396C102.23 24.4826 102.549 24.3077 102.907 24.2164C103.263 24.125 103.632 24.108 104.015 24.1681C104.397 24.2281 104.773 24.3586 105.144 24.5609C105.514 24.7631 105.854 25.0333 106.159 25.3713C106.36 25.5944 106.543 25.858 106.707 26.1634C106.871 26.4687 107.042 26.8133 107.221 27.1956L107.233 27.1852C107.25 27.1278 107.293 27.0925 107.359 27.0821C107.426 27.0703 107.483 27.0912 107.532 27.146L107.896 27.5493C107.965 27.6262 107.973 27.7032 107.917 27.7815L107.117 29.0278C107.084 29.0839 107.037 29.1139 106.974 29.1139C106.912 29.1139 106.86 29.0917 106.818 29.0461L106.443 28.6311C106.4 28.4601 106.368 28.3009 106.347 28.1535C106.325 28.006 106.302 27.8794 106.278 27.7763C106.254 27.6432 106.231 27.5192 106.203 27.4044C106.176 27.2896 106.13 27.1695 106.068 27.0455C106.004 26.9216 105.916 26.7845 105.803 26.6358C105.689 26.487 105.539 26.3095 105.351 26.102C105.232 25.9715 105.091 25.8763 104.926 25.8163C104.76 25.7562 104.593 25.7301 104.423 25.7366C104.254 25.7432 104.089 25.7758 103.929 25.8384C103.768 25.8998 103.63 25.9833 103.515 26.0877C103.231 26.3448 103.083 26.6801 103.074 27.0938C103.063 27.5075 103.22 28.0712 103.544 28.7838C103.702 29.1296 103.84 29.4858 103.957 29.8551C104.074 30.2245 104.141 30.5846 104.161 30.9383C104.179 31.2906 104.137 31.6299 104.032 31.9548C103.927 32.2798 103.733 32.5708 103.448 32.8266C103.118 33.1254 102.75 33.3251 102.346 33.4256C101.941 33.526 101.528 33.5404 101.106 33.4673C100.685 33.3942 100.268 33.2402 99.8598 33.0027C99.45 32.7652 99.0755 32.4586 98.7349 32.0827C98.4843 31.8061 98.2873 31.5177 98.1411 31.2162C97.995 30.9161 97.8723 30.6499 97.7744 30.4163C97.734 30.3406 97.6974 30.2727 97.6635 30.2127C97.6296 30.1527 97.5996 30.0926 97.5735 30.0326L97.4351 30.1579C97.3425 30.2414 97.2551 30.2362 97.1715 30.1448L96.8074 29.7416C96.7305 29.6568 96.7239 29.5798 96.7866 29.5093L96.7827 29.5028Z" fill="#F1F5F9"/>
<path d="M104.644 39.6799L102.398 36.2296C102.331 36.1252 102.349 36.039 102.453 35.9712L102.701 35.8107C102.797 35.748 102.879 35.7702 102.947 35.8733C103.195 36.2557 103.411 36.4697 103.596 36.5167C103.78 36.5636 103.964 36.5271 104.147 36.4083L109.447 32.9593C109.682 32.8066 109.856 32.6683 109.973 32.543C110.089 32.4177 110.159 32.2938 110.185 32.1724C110.211 32.051 110.198 31.9258 110.146 31.7992C110.094 31.6726 110.014 31.5264 109.907 31.3607C109.839 31.2563 109.854 31.1728 109.949 31.1115L110.223 30.9327C110.328 30.8648 110.414 30.8831 110.482 30.9875L112.718 34.4248C112.781 34.52 112.759 34.6023 112.656 34.6701L112.382 34.8476C112.294 34.9037 112.221 34.8959 112.162 34.8241C111.981 34.6205 111.828 34.4665 111.704 34.3621C111.58 34.2577 111.459 34.1938 111.34 34.1729C111.221 34.1507 111.095 34.1716 110.963 34.233C110.83 34.2943 110.668 34.3882 110.478 34.5122L105.165 37.9691C104.766 38.2288 104.775 38.6803 105.192 39.3223C105.255 39.4176 105.238 39.4959 105.143 39.5585L104.895 39.7191C104.791 39.7869 104.707 39.7726 104.646 39.6773L104.644 39.6799Z" fill="#F1F5F9"/>
<path d="M107.717 42.0461L114.081 39.6384C114.198 39.594 114.297 39.5483 114.379 39.5014C114.461 39.4544 114.515 39.3852 114.543 39.2978C114.571 39.2104 114.577 39.0942 114.562 38.9507C114.546 38.8071 114.502 38.6101 114.43 38.3608C114.389 38.2538 114.422 38.1807 114.529 38.1403L114.834 38.0241C114.95 37.9798 115.03 38.0163 115.074 38.1324L116.031 40.6602C116.041 40.6889 116.04 40.7202 116.024 40.7541C116.009 40.7868 115.996 40.8168 115.984 40.8442L110.951 45.9362L118.072 46.3655C118.15 46.3694 118.202 46.4047 118.229 46.4725L119.245 49.1608C119.29 49.2769 119.253 49.3565 119.137 49.4009L118.831 49.5157C118.744 49.5484 118.671 49.5157 118.611 49.4166C118.525 49.2495 118.454 49.1125 118.398 49.0068C118.342 48.9011 118.291 48.8202 118.248 48.7641C118.205 48.708 118.158 48.674 118.109 48.6584C118.059 48.644 118.002 48.6375 117.936 48.6414L117.971 48.6453C117.584 48.7027 117.322 48.7575 117.186 48.8097L111.141 51.0961C110.87 51.1991 110.729 51.344 110.716 51.5306C110.704 51.7185 110.731 51.9312 110.801 52.1714C110.808 52.1909 110.815 52.2157 110.82 52.247C110.825 52.2784 110.835 52.3084 110.846 52.3371C110.891 52.4532 110.859 52.5315 110.752 52.572L110.476 52.6764C110.36 52.7207 110.28 52.6842 110.236 52.5681L108.856 48.9207C108.812 48.8045 108.848 48.7249 108.965 48.6805L109.241 48.5761C109.329 48.5435 109.402 48.5761 109.462 48.6753C109.634 48.9859 109.778 49.1947 109.89 49.303C110.002 49.41 110.134 49.457 110.284 49.444L115.66 47.4108L108.212 46.9058C108.129 46.8927 108.077 46.8575 108.055 46.7988L107.973 46.5808C107.94 46.4934 107.956 46.4321 108.02 46.3968L112.998 41.2918L108.218 43.1005C108.024 43.1736 107.892 43.2623 107.82 43.3667C107.748 43.4711 107.713 43.5677 107.713 43.6564L107.868 44.4616C107.896 44.5621 107.861 44.6312 107.764 44.6678L107.489 44.7722C107.372 44.8165 107.293 44.78 107.249 44.6638L106.023 41.4236C105.979 41.3074 106.015 41.2278 106.131 41.1835L106.408 41.0791C106.496 41.0465 106.569 41.0791 106.629 41.1783C106.753 41.4197 106.856 41.6037 106.938 41.7342C107.02 41.8647 107.1 41.9586 107.178 42.0174C107.288 42.1309 107.468 42.14 107.72 42.0448L107.717 42.0461Z" fill="#F1F5F9"/>
</g>
<g filter="url(#filter1_d_68_2290)">
<path d="M19.9113 98.7026C20.2845 98.3985 20.9853 97.8296 22.0162 96.997C23.0458 96.1644 23.7884 95.5628 24.2425 95.1935C24.4539 95.0213 24.4904 94.849 24.3508 94.678C24.2869 94.5997 24.1733 94.5058 24.0102 94.3936C23.8458 94.2813 23.6265 94.1391 23.3525 93.9681C23.0785 93.7972 22.8814 93.6693 22.7613 93.5858C22.73 93.5466 22.7222 93.4944 22.7418 93.4279C22.76 93.3613 22.794 93.3078 22.8436 93.2674C22.9062 93.2165 22.9688 93.2113 23.0315 93.2504L23.2859 93.3913C24.0859 93.8781 25.2121 94.3962 26.6658 94.9469C26.7154 94.9573 26.7859 95.0173 26.8746 95.127C26.9438 95.2131 26.9803 95.2862 26.9842 95.3475C26.9882 95.4088 26.949 95.4728 26.8681 95.5393C26.7559 95.6307 26.4414 95.8734 25.9259 96.2688C25.4091 96.6642 24.7123 97.2032 23.8353 97.8857C22.9571 98.5682 22.0306 99.3081 21.0544 100.104C20.7869 100.322 20.6682 100.528 20.6982 100.724C20.7282 100.92 20.9644 101.289 21.4081 101.833C21.4394 101.872 21.4211 101.919 21.3533 101.975C21.2476 102.062 21.1693 102.073 21.1184 102.011C21.0049 101.871 20.7582 101.559 20.3811 101.078C20.0039 100.596 19.7456 100.269 19.6059 100.098C19.3906 99.8327 19.0944 99.4764 18.7172 99.0262C18.3401 98.576 18.1143 98.3046 18.0373 98.2106C17.9865 98.148 17.9956 98.0893 18.0634 98.0331C18.1691 97.947 18.2409 97.9274 18.2788 97.9744C18.7029 98.4834 19.0187 98.7809 19.2275 98.8709C19.435 98.961 19.6633 98.9036 19.9126 98.7013L19.9113 98.7026Z" fill="#F1F5F9"/>
<path d="M33.657 105.391C33.4312 105.661 33.182 105.865 32.9105 106.003C32.6391 106.141 32.3546 106.214 32.0571 106.226C31.7609 106.237 31.4581 106.196 31.1501 106.104C30.8422 106.011 30.5355 105.873 30.2314 105.689C29.9717 105.531 29.6938 105.343 29.3989 105.125C29.1039 104.907 28.7907 104.667 28.4619 104.403L27.1765 105.942C27.0486 106.094 26.9703 106.22 26.9403 106.318C26.9103 106.415 26.9142 106.506 26.9533 106.584C26.9651 106.616 26.9938 106.669 27.0408 106.736C27.0878 106.806 27.1413 106.874 27.2026 106.943C27.2626 107.011 27.3213 107.074 27.3775 107.132C27.4336 107.191 27.4727 107.23 27.4962 107.248C27.581 107.319 27.5915 107.393 27.5275 107.469L27.3631 107.666C27.2939 107.749 27.2169 107.754 27.1321 107.684L24.3147 105.33C24.222 105.253 24.2103 105.172 24.2808 105.09L24.4452 104.893C24.5026 104.823 24.5731 104.817 24.6566 104.876L25.3756 105.283C25.4526 105.3 25.5348 105.283 25.6223 105.233C25.7097 105.182 25.8206 105.078 25.9537 104.919L29.515 100.658C29.6886 100.45 29.776 100.244 29.7773 100.039C29.7773 99.8345 29.6246 99.6035 29.318 99.3464C29.2253 99.2694 29.2109 99.1924 29.2749 99.1168L29.4576 98.8988C29.5267 98.8153 29.6077 98.8127 29.7003 98.8897L32.2633 101.031C32.8479 101.521 33.2825 101.982 33.5643 102.42C33.8462 102.856 34.0224 103.259 34.0928 103.629C34.162 104 34.1516 104.334 34.0576 104.633C33.965 104.932 33.8319 105.185 33.6583 105.394L33.657 105.391ZM32.4042 104.309L32.4394 104.267C32.613 104.06 32.6965 103.826 32.69 103.568C32.6835 103.31 32.6248 103.055 32.5151 102.803C32.4042 102.553 32.2581 102.313 32.0767 102.084C31.8953 101.856 31.7191 101.671 31.5495 101.53L31.2611 101.288C31.1841 101.224 31.1397 101.198 31.128 101.213L29.0348 103.717C29.4119 104.031 29.7538 104.288 30.0592 104.485C30.3645 104.682 30.6516 104.813 30.9178 104.877C31.1841 104.941 31.4372 104.929 31.6747 104.839C31.9122 104.75 32.155 104.573 32.4029 104.309H32.4042Z" fill="#F1F5F9"/>
<path d="M32.9012 111.938L33.2587 110.352C33.2679 110.295 33.2992 110.258 33.354 110.243C33.4088 110.227 33.4623 110.233 33.5145 110.263L33.9203 110.492C33.9817 110.526 34.0078 110.562 33.9986 110.597C34.0756 110.848 34.167 111.076 34.2714 111.28C34.3758 111.484 34.505 111.673 34.659 111.848C34.8129 112.023 34.9983 112.192 35.2123 112.353C35.4263 112.514 35.6768 112.676 35.9652 112.839C36.3841 113.076 36.7704 113.153 37.1214 113.07C37.4725 112.988 37.7609 112.747 37.9879 112.346C38.1654 112.032 38.168 111.709 37.9971 111.379C37.8261 111.05 37.4973 110.66 37.0131 110.211C36.7039 109.923 36.4389 109.627 36.2184 109.321C35.9992 109.016 35.8321 108.708 35.7199 108.396C35.6077 108.084 35.5581 107.774 35.5711 107.464C35.5842 107.155 35.6716 106.855 35.836 106.564C36.0005 106.273 36.2236 106.043 36.5081 105.877C36.7926 105.712 37.1123 105.606 37.4699 105.564C37.8274 105.522 38.2046 105.542 38.6013 105.626C38.998 105.709 39.3882 105.859 39.7732 106.076C40.0263 106.218 40.2782 106.402 40.5261 106.624C40.7741 106.847 41.0429 107.101 41.3313 107.387L41.3378 107.375C41.3339 107.321 41.3587 107.282 41.4135 107.255C41.4683 107.229 41.527 107.233 41.5884 107.268L42.0477 107.527C42.1352 107.576 42.1678 107.64 42.1456 107.721L41.8624 108.992C41.8533 109.05 41.8207 109.086 41.7658 109.102C41.711 109.118 41.6575 109.111 41.6053 109.081L41.1329 108.815C41.0377 108.678 40.9542 108.549 40.885 108.427C40.8158 108.306 40.7519 108.203 40.6958 108.119C40.6305 108.01 40.5666 107.909 40.5039 107.817C40.4413 107.724 40.3604 107.633 40.2625 107.541C40.1646 107.45 40.0394 107.353 39.8893 107.253C39.7379 107.152 39.5448 107.036 39.3086 106.903C39.1598 106.82 39.0019 106.773 38.8362 106.761C38.6691 106.75 38.5125 106.769 38.3651 106.814C38.2176 106.861 38.0832 106.93 37.9632 107.023C37.8418 107.116 37.7478 107.22 37.6813 107.339C37.5169 107.63 37.5012 107.955 37.633 108.314C37.7648 108.673 38.0936 109.12 38.6222 109.655C38.8792 109.914 39.122 110.189 39.3503 110.477C39.5787 110.767 39.7614 111.061 39.8984 111.361C40.0341 111.661 40.1124 111.964 40.1294 112.269C40.1464 112.575 40.0746 112.873 39.9102 113.164C39.7196 113.502 39.4626 113.765 39.1389 113.95C38.8153 114.135 38.4551 114.249 38.0584 114.289C37.6617 114.33 37.2415 114.298 36.7991 114.194C36.3567 114.09 35.9209 113.917 35.4928 113.676C35.1783 113.498 34.9056 113.299 34.6746 113.074C34.4436 112.851 34.2453 112.652 34.0796 112.475C34.0182 112.421 33.9634 112.371 33.9125 112.327C33.8616 112.282 33.816 112.239 33.7716 112.193L33.692 112.334C33.6385 112.428 33.5602 112.447 33.4545 112.388L32.9951 112.13C32.8986 112.075 32.8659 112.011 32.8972 111.935L32.9012 111.938Z" fill="#F1F5F9"/>
<path d="M42.3417 116.797L42.3965 115.173C42.3952 115.115 42.42 115.074 42.4709 115.048C42.5218 115.021 42.5753 115.019 42.6327 115.038L43.0751 115.187C43.1417 115.209 43.1743 115.239 43.1717 115.277C43.2944 115.509 43.4262 115.716 43.5671 115.896C43.7067 116.076 43.8699 116.239 44.0552 116.381C44.2392 116.525 44.4519 116.655 44.6933 116.774C44.9334 116.893 45.2114 117.005 45.5246 117.111C45.9813 117.265 46.3741 117.267 46.7043 117.121C47.0344 116.975 47.2719 116.684 47.4194 116.247C47.5342 115.905 47.4768 115.588 47.2471 115.295C47.0175 115.003 46.622 114.683 46.0635 114.332C45.7046 114.107 45.3902 113.865 45.1174 113.607C44.8447 113.348 44.6241 113.076 44.4558 112.791C44.2875 112.505 44.1804 112.211 44.1348 111.905C44.0891 111.6 44.1204 111.288 44.2274 110.972C44.3344 110.655 44.5106 110.389 44.7585 110.172C45.0065 109.956 45.3014 109.792 45.6446 109.684C45.9878 109.576 46.3624 109.526 46.7669 109.534C47.1714 109.542 47.5838 109.616 48.0014 109.757C48.2768 109.85 48.5586 109.983 48.8444 110.155C49.1302 110.327 49.4408 110.527 49.7775 110.755L49.7814 110.742C49.767 110.69 49.7853 110.646 49.8336 110.609C49.8832 110.574 49.9406 110.566 50.0071 110.59L50.507 110.758C50.6022 110.789 50.6453 110.848 50.6388 110.932L50.5983 112.233C50.5996 112.29 50.5748 112.332 50.5239 112.358C50.473 112.384 50.4182 112.387 50.3621 112.367L49.8492 112.195C49.7292 112.079 49.6248 111.966 49.5334 111.859C49.4421 111.752 49.3612 111.664 49.2907 111.592C49.2059 111.497 49.1237 111.409 49.0454 111.331C48.9658 111.253 48.8692 111.177 48.7557 111.105C48.6421 111.033 48.5025 110.963 48.3355 110.892C48.1684 110.822 47.957 110.744 47.7 110.658C47.5381 110.603 47.375 110.586 47.2093 110.607C47.0436 110.628 46.8922 110.675 46.7565 110.748C46.6207 110.821 46.502 110.915 46.4002 111.028C46.2984 111.142 46.2266 111.263 46.1823 111.391C46.0753 111.708 46.1209 112.03 46.3167 112.358C46.5124 112.687 46.9209 113.064 47.5394 113.491C47.8409 113.697 48.1306 113.921 48.4086 114.163C48.6865 114.404 48.9214 114.66 49.1119 114.929C49.3012 115.198 49.4343 115.481 49.5086 115.777C49.583 116.073 49.5674 116.381 49.4604 116.697C49.3364 117.065 49.1328 117.37 48.8496 117.613C48.5665 117.856 48.2337 118.035 47.8513 118.148C47.469 118.262 47.0514 118.31 46.5972 118.29C46.1431 118.271 45.6838 118.182 45.2179 118.025C44.876 117.911 44.5706 117.764 44.3018 117.588C44.033 117.412 43.8007 117.253 43.6049 117.111C43.5345 117.068 43.4705 117.03 43.4131 116.996C43.3557 116.962 43.3009 116.927 43.25 116.891L43.1978 117.045C43.1626 117.149 43.0895 117.18 42.9746 117.142L42.4761 116.974C42.3717 116.938 42.3274 116.881 42.3443 116.8L42.3417 116.797Z" fill="#F1F5F9"/>
<path d="M55.8853 120.371L51.9534 119.707C51.8347 119.688 51.7851 119.624 51.8021 119.517L51.8451 119.263C51.8621 119.166 51.9286 119.126 52.0474 119.146C52.4833 119.219 52.7769 119.213 52.9283 119.124C53.0809 119.035 53.1723 118.897 53.2036 118.71L54.121 113.275C54.1615 113.035 54.1745 112.84 54.1588 112.69C54.1432 112.542 54.1001 112.422 54.0284 112.331C53.9566 112.241 53.8587 112.175 53.7347 112.13C53.6095 112.086 53.4529 112.048 53.2649 112.017C53.1462 111.997 53.0953 111.939 53.1123 111.839L53.1592 111.559C53.1775 111.452 53.2454 111.409 53.3641 111.428L57.2817 112.09C57.39 112.108 57.4356 112.171 57.4174 112.278L57.3704 112.559C57.3547 112.647 57.3025 112.689 57.2125 112.682C56.9489 112.675 56.7401 112.679 56.5848 112.693C56.4295 112.707 56.3055 112.746 56.2142 112.809C56.1215 112.872 56.0563 112.963 56.0145 113.084C55.9741 113.206 55.9362 113.365 55.9036 113.561L54.9836 119.009C54.9144 119.419 55.2459 119.685 55.978 119.809C56.0863 119.827 56.1333 119.886 56.1163 119.984L56.0732 120.237C56.055 120.344 55.991 120.388 55.8827 120.37L55.8853 120.371Z" fill="#F1F5F9"/>
<path d="M61.0253 119.793L60.7878 113.865C60.7839 113.757 60.7721 113.663 60.7538 113.582C60.7356 113.501 60.6899 113.439 60.6181 113.392C60.5464 113.345 60.442 113.308 60.3049 113.282C60.1679 113.256 59.9748 113.239 59.7229 113.231C59.612 113.235 59.5559 113.188 59.552 113.089L59.5402 112.804C59.5363 112.696 59.5937 112.64 59.7138 112.635L62.3303 112.53C62.3603 112.53 62.3877 112.54 62.4138 112.562C62.4399 112.584 62.4634 112.602 62.4842 112.619L65.5979 118.173L68.1974 112.389C68.2248 112.326 68.2731 112.292 68.3436 112.289L71.1258 112.178C71.2458 112.173 71.3085 112.225 71.3124 112.333L71.3241 112.618C71.328 112.699 71.2745 112.751 71.1649 112.773C70.9848 112.799 70.8374 112.82 70.7238 112.838C70.609 112.857 70.519 112.876 70.455 112.897C70.3898 112.918 70.3441 112.947 70.3154 112.985C70.2867 113.022 70.2632 113.068 70.2462 113.123L70.2606 113.095C70.194 113.432 70.1627 113.664 70.1679 113.791L70.3937 119.421C70.4041 119.674 70.4929 119.83 70.6612 119.892C70.8295 119.953 71.0344 119.987 71.2758 119.996C71.2954 119.996 71.3215 119.996 71.3515 120C71.3816 120.004 71.4116 120.004 71.4416 120.003C71.5616 119.997 71.6243 120.046 71.6282 120.144L71.6386 120.401C71.6425 120.509 71.5851 120.565 71.4651 120.57L67.6911 120.722C67.571 120.727 67.5084 120.675 67.5045 120.566L67.494 120.309C67.4901 120.228 67.5436 120.176 67.6532 120.154C67.9925 120.095 68.2287 120.034 68.3618 119.97C68.4949 119.906 68.5785 119.81 68.6137 119.682L68.4127 114.675L65.6423 120.709C65.6044 120.774 65.5562 120.807 65.4961 120.809L65.2704 120.818C65.1803 120.822 65.1281 120.792 65.1164 120.73L61.974 115.217L62.1528 119.67C62.1606 119.85 62.1998 119.984 62.2741 120.072C62.3472 120.159 62.4255 120.214 62.5064 120.239L63.2933 120.329C63.3938 120.334 63.446 120.382 63.4499 120.471L63.4604 120.728C63.4643 120.837 63.4069 120.893 63.2868 120.898L59.9343 121.032C59.8143 121.038 59.7516 120.985 59.7477 120.877L59.7373 120.62C59.7334 120.539 59.7869 120.487 59.8965 120.465C60.1562 120.427 60.3584 120.392 60.502 120.359C60.6455 120.326 60.7578 120.286 60.8361 120.238C60.9744 120.178 61.0383 120.031 61.0292 119.797L61.0253 119.793Z" fill="#F1F5F9"/>
<path d="M77.0132 118.536C77.0694 118.783 77.025 119.006 76.8814 119.206C76.7366 119.406 76.5278 119.537 76.2537 119.6C75.9901 119.66 75.7487 119.633 75.5321 119.515C75.3142 119.398 75.1784 119.216 75.121 118.97C75.0636 118.723 75.108 118.499 75.2515 118.294C75.3951 118.09 75.5987 117.957 75.8636 117.897C76.1376 117.834 76.3829 117.864 76.6009 117.986C76.8188 118.107 76.9558 118.291 77.0132 118.538V118.536Z" fill="#F1F5F9"/>
<path d="M78.0607 113.172C78.0568 112.642 78.1403 112.132 78.3125 111.64C78.4848 111.149 78.7497 110.697 79.1073 110.284C79.4648 109.871 79.9242 109.529 80.4866 109.257C80.5088 109.229 80.5362 109.211 80.5701 109.203C80.6041 109.195 80.6497 109.18 80.7059 109.159L80.9303 109.073C81.4366 108.88 81.8908 108.756 82.2953 108.703C82.6999 108.65 82.9935 108.642 83.1801 108.677L83.1657 108.682C83.244 108.692 83.2975 108.69 83.3263 108.68C83.3445 108.673 83.3367 108.622 83.3015 108.53L83.244 108.421C83.2049 108.32 83.2427 108.248 83.355 108.205L83.7765 108.043C83.8613 108.01 83.9265 108.029 83.9748 108.098L85.3959 109.918C85.4312 109.954 85.4364 109.997 85.4142 110.049C85.3907 110.101 85.3516 110.138 85.2955 110.16L84.9013 110.31C84.8361 110.335 84.7852 110.329 84.7513 110.294C84.429 110.098 84.134 109.946 83.8665 109.835C83.599 109.725 83.3367 109.651 83.0809 109.613C82.8251 109.575 82.5602 109.58 82.2888 109.626C82.0161 109.672 81.7211 109.756 81.4027 109.878C80.9903 110.036 80.6693 110.264 80.4409 110.564C80.2113 110.864 80.0534 111.201 79.9646 111.573C79.8759 111.945 79.8446 112.342 79.8707 112.762C79.8968 113.182 79.9659 113.593 80.0769 113.995L80.1539 114.197C80.18 114.265 80.1982 114.3 80.2113 114.306C80.4122 114.693 80.6341 115.039 80.8742 115.343C81.1143 115.648 81.3766 115.891 81.6598 116.073C81.9443 116.254 82.2536 116.367 82.5876 116.413C82.9217 116.459 83.2858 116.421 83.6799 116.3C85.2185 115.634 85.9519 114.614 85.8775 113.241C85.8696 113.166 85.914 113.11 86.0067 113.075L86.4008 112.925C86.5313 112.875 86.6109 112.912 86.637 113.037C86.7544 114.017 86.573 114.864 86.0941 115.579C85.6152 116.294 84.7865 116.876 83.6055 117.328C83.0431 117.543 82.4911 117.636 81.9482 117.606C81.4053 117.577 80.9016 117.448 80.4383 117.218C79.9751 116.99 79.564 116.675 79.2077 116.275C78.8502 115.875 78.5722 115.414 78.3726 114.89L78.3047 114.713C78.1455 114.213 78.0646 113.697 78.0607 113.168V113.172Z" fill="#F1F5F9"/>
<path d="M98.9622 108.655L95.6919 110.858C95.5928 110.925 95.5092 110.91 95.444 110.812L94.567 109.296C94.5214 109.228 94.5318 109.162 94.5958 109.096C94.7928 108.887 94.9364 108.64 95.0238 108.359C95.1112 108.077 95.1478 107.779 95.1321 107.469C95.1164 107.158 95.0577 106.846 94.9559 106.534C94.8541 106.221 94.7132 105.93 94.5305 105.661C94.3439 105.385 94.1168 105.137 93.8493 104.92C93.5818 104.703 93.2895 104.547 92.9711 104.45C92.6527 104.355 92.3094 104.335 91.9427 104.391C91.5761 104.449 91.2002 104.605 90.8179 104.864C90.4264 105.127 90.1301 105.415 89.9279 105.725C89.7256 106.036 89.6055 106.355 89.5677 106.686C89.5299 107.016 89.5599 107.347 89.6564 107.679C89.753 108.011 89.9057 108.33 90.1119 108.638C90.2633 108.862 90.459 109.076 90.6991 109.28C90.9392 109.483 91.2015 109.652 91.486 109.788C91.7705 109.923 92.0693 110.012 92.3838 110.056C92.6983 110.101 93.005 110.076 93.3051 109.983C93.3678 109.952 93.4226 109.969 93.4683 110.037L94.5318 111.427C94.5971 111.524 94.584 111.604 94.4927 111.665L91.3098 113.809C91.2185 113.871 91.1428 113.856 91.0815 113.768L90.0297 112.207C89.9696 112.117 89.984 112.041 90.0766 111.98L90.3507 111.795C90.3755 111.778 90.4094 111.77 90.4512 111.768C90.4929 111.768 90.5282 111.779 90.5569 111.804C90.7148 111.949 90.8831 112.069 91.0632 112.165C91.2433 112.262 91.4116 112.257 91.5695 112.15L93.0428 111.158L92.945 111.012C92.5352 111.158 92.1137 111.232 91.6804 111.235C91.2472 111.239 90.8322 111.179 90.4342 111.055C90.0362 110.931 89.6708 110.756 89.3367 110.529C89.0026 110.302 88.7299 110.032 88.5172 109.717C88.2601 109.335 88.0852 108.911 87.9952 108.443C87.9052 107.976 87.9221 107.5 88.0474 107.012C88.1727 106.525 88.4193 106.034 88.7886 105.54C89.1579 105.047 89.6747 104.575 90.3402 104.127C91.0136 103.672 91.6452 103.37 92.2325 103.22C92.8197 103.068 93.3586 103.032 93.8467 103.111C94.3361 103.19 94.7719 103.367 95.1569 103.641C95.5419 103.915 95.8668 104.252 96.1343 104.647C96.3418 104.954 96.4932 105.293 96.5911 105.663C96.6889 106.032 96.7229 106.415 96.6929 106.811C96.6628 107.206 96.565 107.604 96.3992 108.005C96.2335 108.406 95.9869 108.792 95.658 109.166L95.7637 109.323L97.2984 108.289C97.4641 108.177 97.5346 108.022 97.5085 107.821C97.4824 107.621 97.4328 107.42 97.3584 107.221C97.3205 107.148 97.3479 107.08 97.4406 107.018L97.7277 106.825C97.819 106.764 97.8947 106.778 97.9561 106.867L99.0079 108.428C99.0679 108.518 99.0536 108.593 98.9609 108.655H98.9622Z" fill="#F1F5F9"/>
<path d="M102.284 104.189L97.8181 100.285C97.7359 100.213 97.6602 100.157 97.5898 100.114C97.5193 100.072 97.441 100.06 97.3575 100.081C97.2739 100.102 97.1761 100.151 97.0625 100.232C96.9503 100.313 96.8042 100.442 96.6254 100.62C96.5523 100.703 96.4792 100.713 96.4048 100.646L96.1908 100.458C96.1086 100.386 96.1086 100.305 96.1869 100.215L97.9108 98.2436C97.9303 98.2214 97.9578 98.2084 97.9904 98.2044C98.0243 98.2005 98.0543 98.1966 98.0804 98.194L104.254 99.7548L101.844 93.8889C101.817 93.825 101.826 93.7662 101.871 93.7127L103.704 91.6169C103.783 91.5269 103.863 91.5165 103.945 91.5882L104.159 91.7761C104.22 91.8297 104.222 91.904 104.162 91.9993C104.056 92.1468 103.971 92.2694 103.905 92.3647C103.839 92.46 103.791 92.5383 103.762 92.5996C103.732 92.6609 103.722 92.7144 103.73 92.7601C103.737 92.8071 103.754 92.8554 103.782 92.9063L103.771 92.8775C103.97 93.1581 104.117 93.3395 104.212 93.423L108.454 97.1318C108.644 97.2988 108.819 97.3419 108.98 97.2609C109.14 97.1813 109.306 97.0561 109.478 96.8864C109.491 96.8708 109.509 96.8538 109.533 96.8342C109.556 96.8147 109.577 96.7938 109.597 96.7703C109.676 96.6802 109.753 96.6672 109.828 96.7324L110.021 96.9021C110.103 96.9739 110.103 97.0548 110.025 97.1448L107.539 99.9883C107.459 100.08 107.38 100.089 107.297 100.017L107.104 99.8474C107.043 99.7939 107.042 99.7195 107.102 99.6243C107.292 99.3385 107.41 99.1245 107.455 98.9835C107.5 98.8426 107.488 98.716 107.42 98.6025L103.647 95.3035L106.122 101.466C106.143 101.537 106.133 101.596 106.094 101.642L105.945 101.811C105.887 101.879 105.829 101.896 105.775 101.862L99.6112 100.351L102.965 103.283C103.101 103.402 103.226 103.465 103.341 103.471C103.456 103.478 103.548 103.46 103.621 103.417L104.228 102.908C104.301 102.838 104.372 102.833 104.44 102.892L104.633 103.062C104.715 103.133 104.715 103.214 104.637 103.304L102.427 105.831C102.348 105.921 102.268 105.931 102.186 105.859L101.993 105.69C101.931 105.636 101.93 105.562 101.99 105.467C102.141 105.253 102.255 105.082 102.331 104.954C102.406 104.827 102.453 104.718 102.472 104.628C102.524 104.487 102.461 104.338 102.284 104.184V104.189Z" fill="#F1F5F9"/>
</g>
<g filter="url(#filter2_d_68_2290)">
<path d="M83.7334 40.8906C80.5323 38.5326 75.6516 37.3516 69.0889 37.3516H64.9404V39.9354H68.6322C71.4823 39.9354 73.3327 40.5996 74.1862 41.9268C75.0383 43.254 75.465 46.5856 75.465 51.9255C75.465 57.8292 75.0383 61.457 74.1862 62.8129C73.334 64.1675 71.588 64.846 68.9493 64.846H64.9417V67.0919H68.704C75.3137 67.0919 80.2713 65.8143 83.5768 63.2579C86.8809 60.7014 88.5343 56.8674 88.5343 51.7559C88.5343 46.6443 86.9344 43.2474 83.7347 40.8893L83.7334 40.8906Z" fill="#F1F5F9"/>
<path d="M59.189 37.3516H41.7402V39.9367H47.4156V90.9429H41.7402V93.7395H65.8105V90.9429H59.189V37.3516Z" fill="#F1F5F9"/>
</g>
<path d="M98.6246 47.2555L97.6537 46.5496L97.9094 47.7227L97.2595 46.7127L97.0742 47.8989L96.8328 46.7231L96.2312 47.7619L96.4309 46.5783L95.4952 47.3299L96.1086 46.2977L94.9641 46.6605L95.9102 45.9206L94.7109 45.8462L95.8606 45.4964L94.7697 44.994L95.9676 45.0828L95.1324 44.2202L96.2169 44.7369L95.7497 43.6303L96.5744 44.5034L96.5379 43.3028L96.992 44.4146L97.3913 43.2832L97.4135 44.4838L98.1952 43.5716L97.7815 44.6991L98.8399 44.1327L98.0464 45.0332L99.2379 44.887L98.173 45.4416L99.3371 45.7352L98.1443 45.8671L99.1231 46.5626L97.9629 46.2546L98.6246 47.2555Z" fill="#F1F5F9"/>
<path d="M85.7129 35.2773L74.832 29.1948H59.5129V28.5527H75.0004L86.0261 34.7174L85.7129 35.2773Z" fill="#F1F5F9"/>
<path d="M86.8569 36.4779L85.993 35.8502L86.2201 36.8929L85.642 35.995L85.4776 37.0508L85.2622 36.0042L84.7285 36.9281L84.906 35.875L84.0734 36.5444L84.6189 35.627L83.601 35.9494L84.4414 35.2903L83.3752 35.2238L84.397 34.9132L83.4274 34.4669L84.4923 34.5465L83.7498 33.7792L84.7141 34.2372L84.2992 33.2533L85.0326 34.0297L84.9999 32.9623L85.4032 33.9514L85.7594 32.9453L85.779 34.0128L86.4746 33.2024L86.1066 34.2046L87.0474 33.6996L86.3415 34.5021L87.4024 34.3716L86.455 34.8649L87.4898 35.1259L86.4289 35.2434L87.2993 35.8606L86.2671 35.5879L86.8569 36.4779Z" fill="#F1F5F9"/>
<path d="M76.7189 30.6947L75.8563 30.067L76.0834 31.1097L75.5053 30.2118L75.3408 31.2676L75.1255 30.221L74.5905 31.1449L74.768 30.0918L73.9354 30.7612L74.4822 29.8438L73.4643 30.1662L74.3047 29.5071L73.2385 29.4406L74.2603 29.13L73.2907 28.6837L74.3556 28.7633L73.6131 27.996L74.5774 28.454L74.1624 27.4701L74.8958 28.2465L74.8632 27.1791L75.2665 28.1682L75.6227 27.1621L75.641 28.2296L76.3365 27.4192L75.9685 28.4214L76.9107 27.9177L76.2047 28.7189L77.2644 28.5884L76.3183 29.0817L77.3531 29.3427L76.2922 29.4602L77.1626 30.0774L76.1304 29.8047L76.7189 30.6947Z" fill="#F1F5F9"/>
<path d="M61.3908 30.2376L60.5269 29.6099L60.7552 30.6526L60.1758 29.7548L60.0114 30.8105L59.7974 29.7639L59.2624 30.6879L59.4398 29.636L58.6073 30.3042L59.1527 29.3868L58.1349 29.7091L58.9753 29.0501L57.9104 28.9836L58.9322 28.673L57.9626 28.2267L59.0275 28.3063L58.2836 27.539L59.248 27.997L58.833 27.0144L59.5664 27.7895L59.5351 26.722L59.9383 27.7112L60.2933 26.7051L60.3129 27.7725L61.0084 26.9622L60.6404 27.9644L61.5813 27.4607L60.8766 28.2619L61.9362 28.1314L60.9888 28.6247L62.0237 28.8857L60.9627 29.0031L61.8331 29.6217L60.8022 29.3476L61.3908 30.2376Z" fill="#F1F5F9"/>
<path d="M49.0628 98.0488L48.7949 98.6309L59.1074 103.376L59.3753 102.794L49.0628 98.0488Z" fill="#F1F5F9"/>
<path d="M64.5198 98.0752L58.4785 102.559L58.8604 103.073L64.9017 98.5897L64.5198 98.0752Z" fill="#F1F5F9"/>
<path d="M65.8093 99.48L65.1425 98.9945L65.3187 99.7997L64.8724 99.1068L64.7458 99.9211L64.58 99.1146L64.1677 99.8271L64.3047 99.0154L63.6613 99.5309L64.0828 98.8223L63.2986 99.0715L63.9458 98.5639L63.125 98.5117L63.9119 98.2729L63.1641 97.9284L63.9863 97.9897L63.4134 97.3973L64.1572 97.7522L63.8362 96.9927L64.4013 97.5917L64.3778 96.7683L64.6884 97.5304L64.9624 96.7539L64.9781 97.5773L65.5144 96.9536L65.2299 97.7261L65.9555 97.3372L65.4126 97.9558L66.2295 97.8553L65.4987 98.235L66.2974 98.4373L65.4792 98.5274L66.1499 99.0037L65.3539 98.7923L65.8093 99.48Z" fill="#F1F5F9"/>
<path d="M59.7664 103.96L59.1008 103.475L59.2757 104.28L58.8307 103.587L58.7028 104.402L58.5371 103.595L58.1247 104.308L58.2617 103.496L57.6197 104.011L58.0412 103.303L57.2556 103.552L57.9042 103.044L57.082 102.992L57.8702 102.753L57.1225 102.409L57.9433 102.47L57.3704 101.878L58.1143 102.233L57.7945 101.473L58.3596 102.072L58.3348 101.249L58.6467 102.011L58.9207 101.234L58.9351 102.058L59.4714 101.434L59.1883 102.207L59.9138 101.818L59.3696 102.436L60.1879 102.336L59.4571 102.716L60.2557 102.918L59.4362 103.008L60.1083 103.484L59.3122 103.273L59.7664 103.96Z" fill="#F1F5F9"/>
<path d="M50.4695 99.48L49.8026 98.9945L49.9788 99.7997L49.5325 99.1068L49.4059 99.9211L49.2402 99.1146L48.8278 99.8271L48.9649 99.0154L48.3228 99.5309L48.743 98.8223L47.9587 99.0715L48.606 98.5639L47.7852 98.5117L48.5721 98.2729L47.8243 97.9284L48.6464 97.9897L48.0736 97.3973L48.8174 97.7522L48.4964 96.9927L49.0614 97.5917L49.0379 96.7683L49.3485 97.5304L49.6226 96.7539L49.6382 97.5773L50.1746 96.9536L49.8901 97.7261L50.6156 97.3372L50.0728 97.9558L50.8897 97.8553L50.1589 98.235L50.9575 98.4373L50.1393 98.5274L50.8101 99.0037L50.0141 98.7923L50.4695 99.48Z" fill="#F1F5F9"/>
<path d="M28.3356 67.5599L27.7014 67.4646L31.7586 40.3655L44.9649 29.0645L45.3825 29.5512L32.3576 40.697L28.3356 67.5599Z" fill="#F1F5F9"/>
<path d="M29.6197 68.7555L28.6488 68.0496L28.9045 69.2227L28.2547 68.2127L28.0694 69.3989L27.8279 68.2231L27.2263 69.2619L27.426 68.0783L26.4903 68.8299L27.1037 67.7977L25.9592 68.1618L26.904 67.4206L25.7061 67.3462L26.8544 66.9964L25.7648 66.494L26.9614 66.5828L26.1263 65.7202L27.2107 66.2369L26.7435 65.1303L27.5683 66.0034L27.533 64.8028L27.9858 65.9146L28.3865 64.7832L28.4073 65.9838L29.189 65.0729L28.7754 66.1991L29.8337 65.6327L29.0416 66.5345L30.233 66.387L29.1681 66.9416L30.3322 67.2352L29.1381 67.367L30.1182 68.0626L28.9567 67.7546L29.6197 68.7555Z" fill="#F1F5F9"/>
<path d="M33.8101 42.3298L32.8392 41.6238L33.095 42.7969L32.4451 41.7869L32.2598 42.9731L32.0184 41.7973L31.4168 42.8361L31.6164 41.6525L30.6808 42.4041L31.2941 41.3732L30.1496 41.736L31.0958 40.9948L29.8965 40.9204L31.0462 40.5707L29.9552 40.0682L31.1532 40.1583L30.318 39.2944L31.4024 39.8112L30.9352 38.7045L31.76 39.5776L31.7234 38.377L32.1776 39.4888L32.5769 38.3574L32.5991 39.558L33.3808 38.6471L32.9671 39.7733L34.0254 39.207L33.232 40.1087L34.4234 39.9612L33.3586 40.5158L34.5226 40.8095L33.3299 40.9426L34.3086 41.6368L33.1485 41.3288L33.8101 42.3298Z" fill="#F1F5F9"/>
<path d="M46.774 30.9723L45.8031 30.2663L46.0588 31.4395L45.409 30.4295L45.2237 31.6157L44.9822 30.4399L44.3806 31.4787L44.5803 30.2951L43.6446 31.0467L44.258 30.0158L43.1135 30.3786L44.0596 29.6373L42.8604 29.563L44.01 29.2132L42.9191 28.7108L44.117 28.8009L43.2819 27.937L44.3663 28.4537L43.8991 27.3471L44.7239 28.2201L44.6873 27.0196L45.1414 28.1314L45.5408 27L45.5629 28.2006L46.3446 27.2897L45.931 28.4159L46.9893 27.8495L46.1959 28.7513L47.3873 28.6038L46.3224 29.1584L47.4865 29.452L46.2937 29.5838L47.2725 30.2794L46.1123 29.9714L46.774 30.9723Z" fill="#F1F5F9"/>
<path d="M42.3737 49.7254L30.1084 81.6777L30.7078 81.9078L42.9731 49.9555L42.3737 49.7254Z" fill="#F1F5F9"/>
<path d="M31.8119 83.2538L30.9624 82.6352L31.1869 83.6623L30.6179 82.7788L30.4548 83.8162L30.2434 82.7879L29.7175 83.6975L29.8923 82.6613L29.0728 83.319L29.6105 82.416L28.6082 82.7331L29.4356 82.0858L28.3877 82.0193L29.3925 81.7139L28.4386 81.2742L29.4865 81.3524L28.7557 80.5982L29.7044 81.0497L29.296 80.0814L30.0176 80.8448L29.9863 79.7956L30.383 80.7678L30.7327 79.7773L30.751 80.8279L31.4361 80.0305L31.0733 81.0171L31.9999 80.5212L31.3056 81.3094L32.3483 81.1815L31.4165 81.667L32.4357 81.924L31.3904 82.0389L32.2478 82.647L31.2325 82.3769L31.8119 83.2538Z" fill="#F1F5F9"/>
<path d="M44.071 51.2968L43.2214 50.6782L43.4459 51.7039L42.8769 50.8218L42.7138 51.8592L42.5024 50.8296L41.9765 51.7391L42.1514 50.703L41.3318 51.362L41.8695 50.459L40.8686 50.7761L41.6946 50.1275L40.6467 50.0623L41.6516 49.7569L40.6976 49.3171L41.7455 49.3954L41.0147 48.6398L41.9634 49.0914L41.555 48.1244L42.2766 48.8878L42.2453 47.8373L42.642 48.8108L42.9918 47.8203L43.01 48.8708L43.6951 48.0735L43.3324 49.0587L44.2589 48.5628L43.5646 49.3523L44.6073 49.2245L43.6756 49.7086L44.6948 49.9657L43.6495 50.0818L44.5068 50.6899L43.4916 50.4198L44.071 51.2968Z" fill="#F1F5F9"/>
<path d="M40.0141 61.2499L39.1646 60.6326L39.389 61.6583L38.82 60.7749L38.6569 61.8136L38.4455 60.784L37.9196 61.6936L38.0945 60.6574L37.275 61.3151L37.8126 60.4121L36.8117 60.7305L37.6377 60.0819L36.5898 60.0167L37.5947 59.7113L36.6407 59.2715L37.6886 59.3498L36.9578 58.5943L37.9066 59.0458L37.4981 58.0775L38.2198 58.8422L38.1884 57.7917L38.5851 58.7639L38.9349 57.7734L38.9531 58.8239L39.6383 58.0266L39.2755 59.0132L40.202 58.5173L39.5078 59.3055L40.5504 59.1776L39.6187 59.663L40.6379 59.9201L39.5926 60.0363L40.45 60.6431L39.4347 60.3742L40.0141 61.2499Z" fill="#F1F5F9"/>
<path d="M35.8598 72.4042L35.0103 71.7856L35.2334 72.8126L34.6657 71.9292L34.5026 72.9666L34.2912 71.9383L33.7653 72.8466L33.9402 71.8117L33.1207 72.4694L33.6583 71.5664L32.6561 71.8835L33.4834 71.2362L32.4355 71.1697L33.4404 70.8643L32.4864 70.4245L33.5343 70.5028L32.8036 69.7486L33.7523 70.2001L33.3438 69.2318L34.0655 69.9952L34.0341 68.9447L34.4309 69.9182L34.7806 68.9277L34.7989 69.9782L35.484 69.1809L35.1212 70.1675L36.0477 69.6703L35.3535 70.4598L36.3961 70.3319L35.4644 70.816L36.4836 71.0731L35.4383 71.1892L36.2957 71.7974L35.2804 71.5272L35.8598 72.4042Z" fill="#F1F5F9"/>
<path d="M82.4864 96.1493C82.4276 96.1493 82.3676 96.1323 82.3141 96.0997L74.9775 91.4318L75.3221 90.8902L82.4446 95.4211L91.0809 86.987L87.4087 80.5457C87.3578 80.457 87.3526 80.35 87.3944 80.256L90.833 72.5645L92.4289 65.6977C92.4485 65.6129 92.502 65.5398 92.5777 65.4941L101.98 59.9102L102.308 60.4609L93.024 65.9757L91.4528 72.7393C91.4476 72.7589 91.4411 72.7785 91.4333 72.7981L88.0495 80.3682L91.7647 86.8826C91.8365 87.0092 91.8143 87.1684 91.7099 87.2715L82.7147 96.0566C82.6534 96.1166 82.5725 96.148 82.4903 96.148L82.4864 96.1493Z" fill="#F1F5F9"/>
<path d="M87.5206 79.8695L75.4082 90.332L75.8279 90.8179L87.9403 80.3554L87.5206 79.8695Z" fill="#F1F5F9"/>
<path d="M103.677 61.7028L102.706 60.9968L102.962 62.17L102.312 61.1599L102.127 62.3462L101.886 61.1704L101.284 62.2091L101.484 61.0255L100.548 61.7772L101.161 60.7463L100.017 61.109L100.962 60.3678L99.7637 60.2934L100.912 59.9437L99.8224 59.4413L101.019 59.5313L100.184 58.6674L101.268 59.1842L100.801 58.0776L101.626 58.9506L101.591 57.75L102.043 58.8619L102.444 57.7305L102.465 58.931L103.247 58.0202L102.833 59.1464L103.891 58.58L103.099 59.4817L104.291 59.3343L103.226 59.8889L104.39 60.1825L103.196 60.3143L104.176 61.0099L103.014 60.7019L103.677 61.7028Z" fill="#F1F5F9"/>
<path d="M94.3267 67.527L93.3558 66.821L93.6116 67.9942L92.9617 66.9842L92.7764 68.1704L92.535 66.9946L91.9334 68.0334L92.133 66.8497L91.1974 67.6014L91.8107 66.5692L90.6663 66.932L91.6111 66.192L90.4131 66.1177L91.5615 65.7679L90.4718 65.2655L91.6685 65.3542L90.8333 64.4917L91.9177 65.0084L91.4505 63.9018L92.2753 64.7748L92.24 63.5743L92.6929 64.6861L93.0935 63.5547L93.1144 64.7553L93.8974 63.8431L93.4824 64.9706L94.5407 64.4042L93.7486 65.3047L94.94 65.1585L93.8752 65.7131L95.0392 66.0067L93.8452 66.1385L94.8252 66.8341L93.6638 66.5261L94.3267 67.527Z" fill="#F1F5F9"/>
<path d="M92.5591 74.5602L91.5895 73.8542L91.844 75.0274L91.1941 74.0174L91.0088 75.2036L90.7674 74.0278L90.1658 75.0666L90.3655 73.8829L89.4298 74.6346L90.0444 73.6024L88.8987 73.9665L89.8448 73.2252L88.6455 73.1509L89.7952 72.8011L88.7042 72.2987L89.9022 72.3874L89.067 71.5249L90.1515 72.0416L89.6843 70.935L90.509 71.808L90.4725 70.6075L90.9266 71.7193L91.3259 70.5879L91.3481 71.7885L92.1298 70.8763L91.7161 72.0038L92.7744 71.4374L91.981 72.3392L93.1725 72.1917L92.1076 72.7463L93.2716 73.0399L92.0789 73.1717L93.0576 73.8673L91.8975 73.5593L92.5591 74.5602Z" fill="#F1F5F9"/>
<path d="M89.3316 82.2673L88.3607 81.5613L88.6165 82.7344L87.9666 81.7257L87.7813 82.9119L87.5399 81.7348L86.9383 82.7749L87.1379 81.59L86.2023 82.3429L86.8156 81.3107L85.6711 81.6735L86.6172 80.9323L85.418 80.8579L86.5676 80.5095L85.4767 80.0057L86.6747 80.0958L85.8395 79.2332L86.9239 79.7487L86.4567 78.642L87.2815 79.5151L87.2449 78.3158L87.6991 79.4276L88.0984 78.2949L88.1206 79.4955L88.9022 78.5846L88.4886 79.7121L89.5469 79.1445L88.7535 80.0462L89.9449 79.9L88.8801 80.4533L90.0441 80.7483L88.8514 80.8801L89.8301 81.5743L88.67 81.2663L89.3316 82.2673Z" fill="#F1F5F9"/>
<path d="M76.7515 92.5869L75.7806 91.8796L76.0364 93.0528L75.3852 92.0441L75.1999 93.2303L74.9585 92.0532L74.3582 93.0932L74.5579 91.9096L73.6209 92.6613L74.2355 91.6291L73.0911 91.9919L74.0359 91.2519L72.8379 91.1762L73.9863 90.8278L72.8953 90.3241L74.0933 90.4141L73.2581 89.5516L74.3425 90.067L73.8753 88.9617L74.7001 89.8334L74.6636 88.6342L75.1177 89.746L75.5183 88.6133L75.5392 89.8139L76.3209 88.903L75.9072 90.0305L76.9655 89.4628L76.1721 90.3646L77.3648 90.2184L76.2987 90.773L77.4627 91.0666L76.27 91.1984L77.2487 91.8927L76.0886 91.5847L76.7515 92.5869Z" fill="#F1F5F9"/>
<path d="M92.9165 88.9326L91.9456 88.2253L92.2014 89.3985L91.5515 88.3898L91.3662 89.576L91.1235 88.4002L90.5232 89.439L90.7229 88.2553L89.7859 89.007L90.4006 87.9748L89.2561 88.3376L90.2009 87.5976L89.0029 87.522L90.1513 87.1735L89.0616 86.6711L90.2583 86.7598L89.4231 85.8973L90.5076 86.4127L90.0404 85.3074L90.8651 86.1804L90.8286 84.9799L91.2827 86.0917L91.6833 84.959L91.7042 86.1596L92.4859 85.2487L92.0722 86.3762L93.1306 85.8085L92.3371 86.7103L93.5299 86.5641L92.4637 87.1187L93.6277 87.4123L92.435 87.5441L93.4137 88.2384L92.2536 87.9304L92.9165 88.9326Z" fill="#F1F5F9"/>
<path d="M83.9351 97.4899L82.9642 96.7839L83.22 97.9571L82.5701 96.9471L82.3848 98.1333L82.1434 96.9575L81.5418 97.9962L81.7414 96.8126L80.8058 97.5643L81.4191 96.5321L80.2746 96.8948L81.2194 96.1549L80.0215 96.0805L81.1699 95.7308L80.0802 95.2284L81.2769 95.3171L80.4417 94.4545L81.5261 94.9713L81.0589 93.8647L81.8837 94.7377L81.8484 93.5372L82.3013 94.649L82.7019 93.5176L82.7228 94.7182L83.5045 93.806L83.0908 94.9335L84.1491 94.3671L83.357 95.2676L84.5484 95.1214L83.4836 95.676L84.6476 95.9696L83.4536 96.1014L84.4336 96.797L83.2722 96.489L83.9351 97.4899Z" fill="#F1F5F9"/>
</g>
<defs>
<filter id="filter0_d_68_2290" x="5.93848" y="3.54492" width="130.325" height="66.1504" filterUnits="userSpaceOnUse" color-interpolation-filters="sRGB">
<feFlood flood-opacity="0" result="BackgroundImageFix"/>
<feColorMatrix in="SourceAlpha" type="matrix" values="0 0 0 0 0 0 0 0 0 0 0 0 0 0 0 0 0 0 127 0" result="hardAlpha"/>
<feOffset dx="7" dy="7"/>
<feGaussianBlur stdDeviation="5"/>
<feColorMatrix type="matrix" values="0 0 0 0 0 0 0 0 0 0 0 0 0 0 0 0 0 0 0.75 0"/>
<feBlend mode="normal" in2="BackgroundImageFix" result="effect1_dropShadow_68_2290"/>
<feBlend mode="normal" in="SourceGraphic" in2="effect1_dropShadow_68_2290" result="shape"/>
</filter>
<filter id="filter1_d_68_2290" x="15.0049" y="88.541" width="112.078" height="49.4922" filterUnits="userSpaceOnUse" color-interpolation-filters="sRGB">
<feFlood flood-opacity="0" result="BackgroundImageFix"/>
<feColorMatrix in="SourceAlpha" type="matrix" values="0 0 0 0 0 0 0 0 0 0 0 0 0 0 0 0 0 0 127 0" result="hardAlpha"/>
<feOffset dx="7" dy="7"/>
<feGaussianBlur stdDeviation="5"/>
<feColorMatrix type="matrix" values="0 0 0 0 0 0 0 0 0 0 0 0 0 0 0 0 0 0 0.75 0"/>
<feBlend mode="normal" in2="BackgroundImageFix" result="effect1_dropShadow_68_2290"/>
<feBlend mode="normal" in="SourceGraphic" in2="effect1_dropShadow_68_2290" result="shape"/>
</filter>
<filter id="filter2_d_68_2290" x="38.7402" y="34.3516" width="66.7942" height="76.3887" filterUnits="userSpaceOnUse" color-interpolation-filters="sRGB">
<feFlood flood-opacity="0" result="BackgroundImageFix"/>
<feColorMatrix in="SourceAlpha" type="matrix" values="0 0 0 0 0 0 0 0 0 0 0 0 0 0 0 0 0 0 127 0" result="hardAlpha"/>
<feOffset dx="7" dy="7"/>
<feGaussianBlur stdDeviation="5"/>
<feColorMatrix type="matrix" values="0 0 0 0 0 0 0 0 0 0 0 0 0 0 0 0 0 0 0.5 0"/>
<feBlend mode="normal" in2="BackgroundImageFix" result="effect1_dropShadow_68_2290"/>
<feBlend mode="normal" in="SourceGraphic" in2="effect1_dropShadow_68_2290" result="shape"/>
</filter>
<clipPath id="clip0_68_2290">
<rect y="0.5" width="127" height="127" rx="63.5" fill="white"/>
</clipPath>
</defs>
</svg>
