<svg width="291" height="70" viewBox="0 0 291 70" fill="none" xmlns="http://www.w3.org/2000/svg">
<path d="M80.3974 20.0687C80.3974 19.0711 80.0983 18.096 79.538 17.2667C78.9777 16.4375 78.1814 15.7915 77.2499 15.4106C76.3184 15.0296 75.2936 14.9308 74.3053 15.1267C73.3171 15.3226 72.4098 15.8043 71.6983 16.5109C70.9868 17.2175 70.5032 18.1172 70.3087 19.096C70.1142 20.0748 70.2175 21.0887 70.6056 22.0094C70.9937 22.93 71.6491 23.716 72.4888 24.2677C73.3285 24.8195 74.3147 25.1122 75.3226 25.1088C75.5167 25.1061 75.7105 25.0908 75.9026 25.0628C72.4981 38.4438 56.0034 38.6103 55.2726 38.6103C52.948 38.609 50.6303 38.3607 48.3593 37.8697C48.3593 37.8697 48.3593 37.8296 48.3593 37.8066C48.3578 36.7824 48.0836 35.7767 47.5643 34.8909C47.045 34.005 46.2989 33.2703 45.4013 32.7608C45.8165 30.0029 46.0355 27.2196 46.0567 24.4314C46.0567 6.41217 32.9259 2.53737 30.1942 1.92889C29.4203 0.981046 28.3328 0.334483 27.1239 0.103459C25.915 -0.127564 24.6624 0.0718251 23.5877 0.66639C22.5129 1.26095 21.6851 2.21242 21.2505 3.35264C20.8159 4.49285 20.8025 5.74842 21.2127 6.89745C21.623 8.04647 22.4304 9.01499 23.4922 9.63183C24.5541 10.2487 25.8021 10.4741 27.0157 10.2684C28.2293 10.0626 29.3303 9.43888 30.1242 8.50739C30.9181 7.5759 31.3538 6.39662 31.3542 5.17797C31.3542 4.98854 31.3542 4.81058 31.3542 4.60393C35.2923 5.95293 43.7658 10.4764 43.7658 24.4084C43.7439 26.9499 43.5501 29.4871 43.1858 32.003C42.957 31.9732 42.7264 31.9579 42.4956 31.9571C41.5289 31.9644 40.5789 32.207 39.7293 32.6635C38.8797 33.12 38.1566 33.7763 37.6238 34.5747C34.9907 33.1396 27.9903 29.7011 21.3843 29.7011C15.7933 29.7011 6.40338 32.8411 3.43967 39.5574C2.25289 39.9897 1.26499 40.8336 0.659563 41.9325C0.0541331 43.0314 -0.127662 44.3104 0.14796 45.532C0.423581 46.7535 1.13787 47.8345 2.15811 48.5741C3.17835 49.3136 4.43515 49.6614 5.69497 49.5529C6.9548 49.4443 8.13197 48.8868 9.00776 47.9839C9.88354 47.081 10.3984 45.8941 10.4566 44.6438C10.5148 43.3935 10.1125 42.1648 9.32432 41.186C8.53615 40.2072 7.41578 39.5448 6.17139 39.3221C9.16989 34.5345 16.6111 31.9973 21.3843 31.9973C27.5785 31.9973 34.4745 35.4817 36.719 36.7159C36.6471 37.0771 36.6102 37.4442 36.6088 37.8123C36.6115 39.1521 37.0805 40.45 37.937 41.4875C38.7935 42.525 39.985 43.2386 41.311 43.5082C42.6369 43.7779 44.0162 43.587 45.2165 42.9677C46.4169 42.3485 47.365 41.3387 47.9011 40.1085C50.3299 40.6356 52.8093 40.9012 55.2958 40.9007C62.9168 40.9007 76.268 37.3129 78.5299 23.9549C79.1135 23.4828 79.5838 22.8882 79.9068 22.2141C80.2298 21.54 80.3974 20.8032 80.3974 20.0572V20.0687ZM26.1518 8.06541C25.5782 8.06541 25.0175 7.89707 24.5406 7.58169C24.0638 7.26631 23.6921 6.81804 23.4726 6.29358C23.2531 5.76911 23.1957 5.19201 23.3076 4.63524C23.4195 4.07847 23.6956 3.56705 24.1012 3.16564C24.5068 2.76424 25.0235 2.49087 25.586 2.38013C26.1485 2.26938 26.7316 2.32622 27.2615 2.54346C27.7914 2.7607 28.2443 3.12858 28.5629 3.60058C28.8816 4.07259 29.0517 4.62752 29.0517 5.19519C29.0517 5.57211 28.9767 5.94535 28.8309 6.29358C28.6852 6.64181 28.4716 6.95822 28.2023 7.22474C27.933 7.49127 27.6133 7.70268 27.2615 7.84693C26.9097 7.99117 26.5326 8.06541 26.1518 8.06541ZM8.17232 44.4138C8.17232 44.9815 8.00225 45.5364 7.6836 46.0084C7.36495 46.4804 6.91205 46.8483 6.38216 47.0656C5.85227 47.2828 5.2692 47.3396 4.70667 47.2289C4.14414 47.1182 3.62743 46.8448 3.22187 46.4434C2.81631 46.042 2.54012 45.5306 2.42823 44.9738C2.31633 44.417 2.37376 43.8399 2.59325 43.3155C2.81274 42.791 3.18443 42.3427 3.66131 42.0273C4.1382 41.712 4.69887 41.5436 5.27242 41.5436C6.04152 41.5436 6.77912 41.846 7.32296 42.3843C7.8668 42.9226 8.17232 43.6526 8.17232 44.4138ZM42.5304 41.3427C41.825 41.3427 41.1353 41.1357 40.5488 40.7477C39.9622 40.3598 39.505 39.8084 39.2351 39.1633C38.9651 38.5183 38.8945 37.8084 39.0321 37.1236C39.1697 36.4388 39.5094 35.8097 40.0083 35.316C40.5071 34.8223 41.1427 34.486 41.8346 34.3498C42.5265 34.2136 43.2437 34.2835 43.8954 34.5507C44.5472 34.8179 45.1043 35.2704 45.4962 35.851C45.8881 36.4315 46.0973 37.1141 46.0973 37.8123C46.0958 38.7482 45.7195 39.6453 45.0509 40.307C44.3823 40.9688 43.476 41.3412 42.5304 41.3427ZM72.5329 20.0687C72.5329 19.5267 72.6951 18.9969 72.9989 18.546C73.3028 18.0952 73.7347 17.7435 74.2403 17.5353C74.7459 17.3271 75.3024 17.2718 75.8397 17.3763C76.377 17.4807 76.871 17.7404 77.2594 18.1224C77.6478 18.5044 77.9132 18.9917 78.0221 19.5229C78.131 20.054 78.0786 20.6052 77.8714 21.1068C77.6643 21.6085 77.3116 22.0382 76.858 22.3418C76.4044 22.6454 75.8701 22.8092 75.3226 22.8126C74.5878 22.8111 73.8836 22.5215 73.364 22.0072C72.8444 21.493 72.5518 20.7959 72.5503 20.0687" fill="white"/>
<path d="M88.0008 47.9214V58.9315H81.563V31.3258C81.5615 30.9012 81.6449 30.4805 81.8085 30.0881C81.9722 29.6956 82.2127 29.3391 82.5163 29.0391C82.8199 28.7392 83.1805 28.5017 83.5774 28.3405C83.9742 28.1792 84.3993 28.0974 84.8283 28.0997H95.4304C98.7556 28.0997 101.232 28.9358 102.86 30.6082C104.553 32.2844 105.4 34.772 105.4 38.0708C105.4 41.1821 104.584 43.6352 102.953 45.43C101.317 47.0986 98.9605 47.9348 95.8828 47.9386L88.0008 47.9214ZM88.0008 42.3589H94.253C95.9408 42.3589 97.1529 42.003 97.8779 41.2854C98.6029 40.5679 99.0379 39.4887 99.0379 37.8756C99.0935 36.6743 98.7036 35.4943 97.9417 34.5576C96.995 33.8046 95.8025 33.4207 94.5894 33.4784H87.9776L88.0008 42.3589Z" fill="#489651"/>
<path d="M123.803 51.6019H128.333C127.809 53.9084 126.457 55.9482 124.528 57.3424C122.462 58.7745 119.979 59.4982 117.458 59.4032C114.017 59.4032 111.33 58.2972 109.396 56.0852C107.463 53.9345 106.497 50.8557 106.497 46.8489C106.497 43.0219 107.432 40.0311 109.304 37.8766C111.237 35.6684 113.926 34.5624 117.371 34.5586C120.998 34.5586 123.807 35.634 125.798 37.7847C127.732 40.0005 128.698 43.0812 128.698 47.0268V48.0257C128.714 48.2384 128.682 48.4519 128.605 48.6514H112.946C113.008 50.5036 113.462 51.8794 114.309 52.7787C115.082 53.7393 116.26 54.2177 117.841 54.2138C118.758 54.2398 119.665 54.0217 120.468 53.5824C120.657 53.52 120.828 53.4137 120.967 53.2724L121.466 52.7787C121.618 52.4812 121.846 52.228 122.127 52.044C122.621 51.7167 123.21 51.5594 123.803 51.5962V51.6019ZM112.929 44.5814H122.173C122.052 42.9683 121.628 41.7686 120.903 40.9936C120.467 40.56 119.942 40.2236 119.364 40.0068C118.786 39.79 118.168 39.6979 117.551 39.7365C116.95 39.7144 116.35 39.8146 115.79 40.0308C115.229 40.247 114.719 40.5747 114.292 40.9936C113.389 41.9723 112.901 43.2567 112.929 44.5814Z" fill="#489651"/>
<path d="M146.927 51.6019H151.457C150.927 53.9059 149.576 55.9438 147.652 57.3424C145.585 58.7718 143.103 59.4952 140.582 59.4032C137.137 59.4032 134.448 58.2972 132.515 56.0852C130.581 53.9345 129.615 50.8557 129.615 46.8489C129.615 43.0219 130.552 40.0311 132.428 37.8766C134.303 35.722 136.99 34.616 140.489 34.5586C144.116 34.5586 146.925 35.634 148.917 37.7847C150.85 40.0005 151.816 43.0812 151.816 47.0268V48.0256C151.83 48.2379 151.8 48.4506 151.729 48.6514H136.07C136.128 50.5036 136.58 51.8794 137.427 52.7787C138.2 53.7393 139.378 54.2177 140.959 54.2138C141.878 54.2397 142.787 54.0217 143.592 53.5824C143.779 53.5197 143.949 53.4134 144.085 53.2724L144.584 52.7787C144.748 52.4868 144.983 52.2401 145.268 52.0612C145.762 51.7331 146.351 51.5757 146.945 51.6134L146.927 51.6019ZM136.053 44.5814H145.292C145.17 42.9683 144.752 41.7686 144.027 40.9936C143.591 40.5603 143.066 40.2241 142.488 40.0073C141.91 39.7906 141.292 39.6982 140.675 39.7365C140.073 39.7143 139.473 39.8144 138.911 40.0306C138.349 40.2468 137.838 40.5746 137.41 40.9936C136.506 41.9713 136.02 43.2569 136.053 44.5814Z" fill="#489651"/>
<path d="M153.277 58.9299V47.3802C153.218 45.3727 153.573 43.3743 154.321 41.5077C154.941 40.0221 155.921 38.7108 157.175 37.6903C158.371 36.7708 159.742 36.0992 161.206 35.7156C162.757 35.2961 164.359 35.0856 165.968 35.0899H166.872V41.4618H164.79C163.035 41.4618 161.736 41.8808 160.893 42.7189C160.05 43.557 159.626 44.8716 159.623 46.6626V58.9299H153.277Z" fill="#489651"/>
<path d="M168.514 28.0996H171.779C172.595 28.1026 173.376 28.4247 173.953 28.9957C174.53 29.5667 174.856 30.3403 174.859 31.1478V33.0306H168.514V28.0996ZM168.514 35.0972H171.779C172.595 35.1002 173.376 35.4223 173.953 35.9933C174.53 36.5643 174.856 37.3379 174.859 38.1454V58.9315H168.514V35.0972Z" fill="white"/>
<path d="M196.62 58.9327H193.448C193.038 58.9524 192.628 58.8871 192.246 58.7409C191.863 58.5946 191.516 58.3708 191.226 58.0837C190.936 57.7967 190.709 57.4527 190.562 57.074C190.414 56.6952 190.348 56.2901 190.368 55.8846V43.7091C190.368 42.274 189.929 41.2273 189.051 40.5691C188.208 39.9196 187.168 39.5716 186.099 39.5817C185.047 39.5679 184.022 39.9147 183.199 40.5633C182.352 41.2216 181.929 42.2683 181.929 43.7034V58.9327H175.596V44.9605C175.596 40.8963 176.667 38.1772 178.809 36.8034C180.933 35.4335 183.392 34.658 185.925 34.5589C188.521 34.5429 191.067 35.2576 193.268 36.6197C195.499 37.9974 196.616 40.7777 196.62 44.9605V58.9327Z" fill="white"/>
<path d="M214.025 57.5187V55.9917C213.545 56.7811 212.909 57.4662 212.154 58.0059C211.4 58.5455 210.543 58.9285 209.635 59.1318C207.803 59.5517 205.885 59.3952 204.148 58.684C202.223 57.8601 200.602 56.4664 199.508 54.6944C198.209 52.7465 197.56 50.1901 197.56 47.0252C197.56 43.3169 198.42 40.3127 200.14 38.0127C201.861 35.7127 204.626 34.5646 208.434 34.5684C211.292 34.5586 214.092 35.3681 216.496 36.8991C218.971 38.4566 220.21 41.3269 220.214 45.5097V58.1387C220.214 62.3254 218.974 65.1822 216.496 66.7091C214.084 68.2176 211.287 69.0141 208.434 69.0053C202.87 69.0053 199.425 66.4336 198.099 61.2902H204.717C205.227 62.1534 206.007 62.8299 206.938 63.2189C207.869 63.6588 208.92 63.7857 209.931 63.5806C211.005 63.3251 211.962 62.7184 212.645 61.8585C213.461 60.8979 213.929 59.4628 214.048 57.5531L214.025 57.5187ZM203.719 47.2204C203.719 51.3496 204.927 53.6458 207.344 54.1089C209.76 54.5719 211.543 54.0189 212.691 52.4499C213.333 51.5309 213.732 50.467 213.851 49.3558C214.093 47.9781 214.108 46.5709 213.898 45.1882C213.706 43.8603 213.192 42.598 212.401 41.5086C212.01 40.9768 211.49 40.5505 210.889 40.2687C210.288 39.9869 209.626 39.8586 208.962 39.8956C206.903 39.8956 205.517 40.6418 204.792 42.1401C204.043 43.7396 203.67 45.4864 203.702 47.2491" fill="white"/>
<path d="M236.876 41.825C236.468 41.2258 235.913 40.7388 235.263 40.4095C234.612 40.0802 233.889 39.9194 233.159 39.9421C232.413 39.9004 231.668 40.0397 230.988 40.3478C230.309 40.6559 229.716 41.1236 229.261 41.7102C228.356 42.908 227.904 44.5517 227.904 46.6412V58.9315H221.739V28.0996H224.824C225.64 28.1026 226.422 28.4247 226.999 28.9957C227.575 29.5667 227.901 30.3403 227.904 31.1478V38.2659C228.396 37.41 229.063 36.6648 229.861 36.0777C230.66 35.4907 231.574 35.0747 232.544 34.8561C234.436 34.3712 236.435 34.4959 238.251 35.212C239.96 35.9417 241.434 37.121 242.514 38.6218C243.674 40.1794 244.254 42.3321 244.254 45.0798V58.9315H238.146V46.5781C238.15 45.75 238.074 44.9235 237.92 44.1097C237.734 43.282 237.378 42.5006 236.876 41.8135" fill="#489651"/>
<path d="M266.791 35.095V49.0844C266.791 53.3323 265.674 56.1126 263.439 57.4253C261.221 58.7387 258.681 59.4219 256.097 59.4C253.578 59.304 251.128 58.5622 248.986 57.2473C246.84 55.9347 245.767 53.2137 245.767 49.0844V35.095H252.112V50.3186C252.112 51.7537 252.535 52.8004 253.382 53.4586C254.204 54.111 255.229 54.4601 256.282 54.446C257.347 54.4535 258.383 54.1057 259.223 53.4586C260.096 52.7966 260.535 51.7499 260.539 50.3186V38.1431C260.529 37.7422 260.599 37.3431 260.746 36.9695C260.894 36.5959 261.115 36.2552 261.398 35.9675C261.683 35.6718 262.029 35.4392 262.412 35.2849C262.794 35.1306 263.206 35.058 263.619 35.072L266.791 35.095Z" fill="#489651"/>
<path d="M274.412 31.0598V38.264C275.111 37.0968 276.112 36.1356 277.312 35.4799C278.543 34.8492 279.917 34.5409 281.302 34.5844C282.661 34.5685 284.004 34.8781 285.216 35.4868C286.428 36.0956 287.473 36.9853 288.262 38.0803C290.079 40.4186 290.986 43.44 290.982 47.1445C290.978 50.849 290.072 53.8684 288.262 56.2029C287.316 57.3695 286.036 58.2275 284.591 58.6655C283.118 59.1645 281.572 59.4223 280.015 59.429C277.169 59.4444 274.376 58.6687 271.953 57.1902C269.471 55.6901 268.231 52.8198 268.235 48.5796V28.0059H271.356C272.172 28.0104 272.954 28.3338 273.53 28.9057C274.107 29.4776 274.432 30.2517 274.435 31.0598H274.412ZM284.747 46.8747C284.747 44.7239 284.293 43.0496 283.384 41.8518C282.977 41.2534 282.422 40.7669 281.773 40.4377C281.124 40.1085 280.402 39.9472 279.673 39.9689C278.929 39.9229 278.185 40.0573 277.506 40.3604C276.827 40.6635 276.233 41.1262 275.775 41.7083C274.87 42.9654 274.412 44.6703 274.412 46.823C274.412 49.3297 274.836 51.1532 275.682 52.2936C276.104 52.9001 276.674 53.3908 277.34 53.7201C278.005 54.0494 278.744 54.2064 279.487 54.1765C280.244 54.2141 280.999 54.0611 281.681 53.7318C282.362 53.4026 282.948 52.9078 283.384 52.2936C284.293 51.0384 284.747 49.2148 284.747 46.823" fill="#489651"/>
</svg>
