<svg width="33" height="32" viewBox="0 0 33 32" fill="none" xmlns="http://www.w3.org/2000/svg">
<path opacity="0.4" d="M16.4998 29.3327C23.8638 29.3327 29.8332 23.3633 29.8332 15.9993C29.8332 8.63535 23.8638 2.66602 16.4998 2.66602C9.13584 2.66602 3.1665 8.63535 3.1665 15.9993C3.1665 23.3633 9.13584 29.3327 16.4998 29.3327Z" fill="#16A34A"/>
<path d="M14.6067 20.7754C14.3416 20.7752 14.0874 20.6697 13.9 20.4821L10.1267 16.7087C9.94072 16.5206 9.83643 16.2667 9.83643 16.0021C9.83643 15.7375 9.94072 15.4836 10.1267 15.2954C10.5134 14.9088 11.1534 14.9088 11.54 15.2954L14.6067 18.3621L21.46 11.5087C21.8467 11.1221 22.4867 11.1221 22.8734 11.5087C23.26 11.8954 23.26 12.5354 22.8734 12.9221L15.3134 20.4821C15.126 20.6697 14.8718 20.7752 14.6067 20.7754Z" fill="#16A34A"/>
</svg>
