<svg width="40" height="40" viewBox="0 0 40 40" fill="none" xmlns="http://www.w3.org/2000/svg">
<path d="M32.3665 19.5833H26.6665C25.9832 19.5833 25.4165 19.0166 25.4165 18.3333V6.68331C25.4165 5.44998 25.8998 4.29998 26.7665 3.43332C27.6332 2.56665 28.7832 2.08331 30.0165 2.08331H30.0332C32.1165 2.09998 34.0832 2.91665 35.5832 4.39998C37.0832 5.91665 37.8998 7.91665 37.8998 9.99998V14.0333C37.9165 17.35 35.6832 19.5833 32.3665 19.5833ZM27.9165 17.0833H32.3665C34.2998 17.0833 35.4165 15.9666 35.4165 14.0333V9.99998C35.4165 8.56665 34.8498 7.19998 33.8332 6.16665C32.8165 5.16665 31.4498 4.59998 30.0332 4.58331C30.0332 4.58331 30.0332 4.58331 30.0165 4.58331C29.4665 4.58331 28.9332 4.79998 28.5332 5.19998C28.1332 5.59998 27.9165 6.11664 27.9165 6.68331V17.0833Z" fill="#003875"/>
<path d="M14.9996 38.8833C14.2163 38.8833 13.4829 38.5833 12.9329 38.0166L10.1663 35.2333C10.0163 35.0833 9.78295 35.0667 9.61628 35.2L6.76628 37.3333C5.88295 38 4.71628 38.1166 3.71628 37.6166C2.71628 37.1166 2.09961 36.1166 2.09961 35V9.99998C2.09961 4.96665 4.98294 2.08331 10.0163 2.08331H30.0163C30.6996 2.08331 31.2663 2.64998 31.2663 3.33331C31.2663 4.01665 30.6996 4.58331 30.0163 4.58331C28.8663 4.58331 27.9329 5.51665 27.9329 6.66665V35C27.9329 36.1166 27.3163 37.1166 26.3163 37.6166C25.3163 38.1166 24.1496 38.0167 23.2663 37.35L20.4163 35.2166C20.2496 35.0833 20.0163 35.1166 19.8829 35.25L17.0829 38.05C16.5163 38.5833 15.7829 38.8833 14.9996 38.8833ZM9.84961 32.6166C10.6163 32.6166 11.3663 32.9 11.9329 33.4833L14.6996 36.2666C14.7996 36.3666 14.9329 36.3833 14.9996 36.3833C15.0663 36.3833 15.1996 36.3666 15.2996 36.2666L18.0996 33.4666C19.1329 32.4333 20.7663 32.3333 21.9163 33.2166L24.7496 35.3333C24.9329 35.4666 25.0996 35.4166 25.1829 35.3666C25.2663 35.3166 25.4163 35.2166 25.4163 35V6.66665C25.4163 5.91665 25.5996 5.19998 25.9163 4.58331H9.99961C6.29961 4.58331 4.58295 6.29998 4.58295 9.99998V35C4.58295 35.2333 4.73294 35.3333 4.81628 35.3833C4.91628 35.4333 5.08295 35.4666 5.24961 35.3333L8.09961 33.2C8.61628 32.8166 9.23294 32.6166 9.84961 32.6166Z" fill="#003875"/>
<path d="M19.0505 23.4667C18.1171 23.4667 17.3838 22.7167 17.3838 21.8C17.3838 20.8834 18.1338 20.1334 19.0505 20.1334C19.9671 20.1334 20.7171 20.8834 20.7171 21.8C20.7171 22.7167 19.9671 23.4667 19.0505 23.4667Z" fill="#003875"/>
<path d="M10.9499 16.7167C10.0165 16.7167 9.2832 15.9667 9.2832 15.05C9.2832 14.1334 10.0332 13.3834 10.9499 13.3834C11.8665 13.3834 12.6165 14.1334 12.6165 15.05C12.6165 15.9667 11.8665 16.7167 10.9499 16.7167Z" fill="#003875"/>
<path d="M10.4499 24.1332C10.1333 24.1332 9.8166 24.0166 9.5666 23.7666C9.08327 23.2832 9.08327 22.4832 9.5666 21.9999L18.6666 12.8999C19.1499 12.4166 19.9499 12.4166 20.4333 12.8999C20.9166 13.3832 20.9166 14.1832 20.4333 14.6666L11.3333 23.7666C11.0999 23.9999 10.7666 24.1332 10.4499 24.1332Z" fill="#003875"/>
</svg>
