<svg width="24" height="24" viewBox="0 0 24 24" fill="none" xmlns="http://www.w3.org/2000/svg">
<path d="M14 16H19V21" stroke="#003875" stroke-width="2" stroke-linecap="round" stroke-linejoin="round"/>
<path d="M4.58203 14.9961C5.14272 16.3838 6.08146 17.5865 7.29157 18.4673C8.50169 19.3481 9.93462 19.8718 11.4275 19.9788C12.9204 20.0858 14.4134 19.7718 15.7368 19.0726C17.0601 18.3734 18.1608 17.317 18.9137 16.0234" stroke="#003875" stroke-width="2" stroke-linecap="round" stroke-linejoin="round"/>
<path d="M10 8H5V3" stroke="#003875" stroke-width="2" stroke-linecap="round" stroke-linejoin="round"/>
<path d="M19.4176 9.00315C18.8569 7.61541 17.9182 6.41278 16.7081 5.53197C15.498 4.65116 14.065 4.12749 12.5721 4.02048C11.0792 3.91346 9.58624 4.2274 8.26287 4.92661C6.9395 5.62582 5.83882 6.68226 5.08594 7.97584" stroke="#003875" stroke-width="2" stroke-linecap="round" stroke-linejoin="round"/>
</svg>
