<svg width="10" height="18" viewBox="0 0 10 18" fill="none" xmlns="http://www.w3.org/2000/svg">
<path d="M8.33333 6.08317H10C10 3.719 7.70417 2.64067 5.83333 2.39234V0.666504H4.16667V2.39234C2.29583 2.64067 0 3.719 0 6.08317C0 8.33817 2.22167 9.51067 4.16667 9.77484V13.9165C2.96 13.7073 1.66667 13.0632 1.66667 11.9165H0C0 14.074 2.02083 15.349 4.16667 15.6132V17.3332H5.83333V15.6082C7.70417 15.3598 10 14.2807 10 11.9165C10 9.55234 7.70417 8.474 5.83333 8.22567V4.08317C6.94167 4.28234 8.33333 4.86734 8.33333 6.08317ZM1.66667 6.08317C1.66667 4.86734 3.05833 4.28234 4.16667 4.08317V8.08234C3.02417 7.8715 1.66667 7.24734 1.66667 6.08317ZM8.33333 11.9165C8.33333 13.1323 6.94167 13.7173 5.83333 13.9165V9.9165C6.94167 10.1157 8.33333 10.7007 8.33333 11.9165Z" fill="#727B8B"/>
</svg>
