<svg width="15" height="14" viewBox="0 0 15 14" fill="none" xmlns="http://www.w3.org/2000/svg">
<path d="M7.66406 14C9.52058 14 11.3011 13.2625 12.6138 11.9497C13.9266 10.637 14.6641 8.85652 14.6641 7C14.6641 5.14348 13.9266 3.36301 12.6138 2.05025C11.3011 0.737498 9.52058 0 7.66406 0C5.80755 0 4.02707 0.737498 2.71432 2.05025C1.40156 3.36301 0.664063 5.14348 0.664062 7C0.664063 8.85652 1.40156 10.637 2.71432 11.9497C4.02707 13.2625 5.80755 14 7.66406 14ZM8.47781 5.7645L7.60281 9.88138C7.54156 10.1789 7.62819 10.3477 7.86881 10.3477C8.03856 10.3477 8.29494 10.2865 8.46906 10.1325L8.39206 10.4965C8.14094 10.7993 7.58706 11.0197 7.11019 11.0197C6.49506 11.0197 6.23344 10.6505 6.40319 9.86562L7.04894 6.83113C7.10494 6.57475 7.05419 6.482 6.79781 6.41988L6.40319 6.349L6.47494 6.01562L8.47781 5.7645ZM7.66406 4.8125C7.432 4.8125 7.20944 4.72031 7.04534 4.55622C6.88125 4.39212 6.78906 4.16956 6.78906 3.9375C6.78906 3.70544 6.88125 3.48288 7.04534 3.31878C7.20944 3.15469 7.432 3.0625 7.66406 3.0625C7.89613 3.0625 8.11869 3.15469 8.28278 3.31878C8.44688 3.48288 8.53906 3.70544 8.53906 3.9375C8.53906 4.16956 8.44688 4.39212 8.28278 4.55622C8.11869 4.72031 7.89613 4.8125 7.66406 4.8125Z" fill="#9DA3AE"/>
</svg>
