<svg width="16" height="19" viewBox="0 0 16 19" fill="none" xmlns="http://www.w3.org/2000/svg">
<g clip-path="url(#clip0_425_1098)">
<circle cx="8" cy="11" r="8" fill="#489651" fill-opacity="0.2"/>
<path d="M10.9701 7.9693C10.963 7.97621 10.9563 7.98356 10.9501 7.9913L7.47709 12.4163L5.38409 10.3223C5.24192 10.1898 5.05387 10.1177 4.85957 10.1211C4.66527 10.1246 4.47989 10.2033 4.34247 10.3407C4.20506 10.4781 4.12635 10.6635 4.12292 10.8578C4.11949 11.0521 4.19161 11.2401 4.32409 11.3823L6.97009 14.0293C7.04138 14.1005 7.12626 14.1565 7.21968 14.1942C7.3131 14.2318 7.41314 14.2502 7.51384 14.2484C7.61454 14.2465 7.71383 14.2244 7.80579 14.1833C7.89775 14.1422 7.9805 14.083 8.04909 14.0093L12.0411 9.0193C12.177 8.87663 12.2513 8.6862 12.248 8.48917C12.2446 8.29214 12.1639 8.10435 12.0231 7.9664C11.8824 7.82844 11.6931 7.75141 11.496 7.75196C11.299 7.7525 11.11 7.83058 10.9701 7.9693Z" fill="#489651"/>
</g>
<defs>
<clipPath id="clip0_425_1098">
<rect width="16" height="16" fill="white" transform="translate(0 3)"/>
</clipPath>
</defs>
</svg>
