<svg width="16" height="18" viewBox="0 0 16 18" fill="none" xmlns="http://www.w3.org/2000/svg">
<path d="M14.5746 7.42083C14.3946 6.99639 14.1744 6.59011 13.9171 6.2075L12.5355 7.14C12.9337 7.73194 13.213 8.39563 13.358 9.09416C13.5057 9.8223 13.5057 10.5727 13.358 11.3008C13.2856 11.6525 13.1784 11.9962 13.038 12.3267C12.9015 12.6514 12.7331 12.9618 12.5355 13.2533C12.1405 13.8358 11.6382 14.3378 11.0555 14.7325C10.464 15.1305 9.80092 15.4098 9.10297 15.555C8.37521 15.7008 7.62574 15.7008 6.89797 15.555C5.85053 15.3398 4.88935 14.8217 4.13381 14.065C3.63472 13.5656 3.23637 12.9749 2.96047 12.325C2.82126 11.9945 2.71465 11.6512 2.64214 11.3C2.42216 10.2155 2.53306 9.08989 2.96047 8.06916C3.23531 7.4194 3.63349 6.82907 4.13297 6.33083C4.63224 5.83259 5.22231 5.43458 5.87131 5.15833C6.20047 5.01916 6.54631 4.91166 6.89631 4.84C6.98547 4.82166 7.07631 4.81333 7.16631 4.79916V7.33333L11.333 4L7.16631 0.666664V3.115C6.96372 3.13743 6.76216 3.16829 6.56214 3.2075C5.64893 3.39463 4.78157 3.75993 4.00964 4.2825C2.63838 5.20752 1.63092 6.58004 1.15942 8.16551C0.687933 9.75098 0.781678 11.451 1.42464 12.975C1.78259 13.8235 2.30193 14.5945 2.95381 15.245C3.6048 15.8947 4.37459 16.4133 5.22131 16.7725C6.55242 17.3357 8.02334 17.4807 9.43881 17.1883C10.5719 16.9542 11.6311 16.4484 12.5255 15.7145C13.42 14.9806 14.1229 14.0405 14.5738 12.975C14.7571 12.5417 14.898 12.0908 14.9905 11.635C15.1837 10.6864 15.1837 9.70859 14.9905 8.76C14.8955 8.3012 14.7563 7.85271 14.5746 7.42083Z" fill="#489651"/>
</svg>
