<svg width="9" height="27" viewBox="0 0 9 27" fill="none" xmlns="http://www.w3.org/2000/svg">
<path fill-rule="evenodd" clip-rule="evenodd" d="M1.55205 0.105961C1.78916 -0.0128482 2.06375 -0.0326053 2.31542 0.0510352C2.56709 0.134676 2.77523 0.314863 2.89405 0.551961L8.89405 12.552C8.96373 12.691 9.00002 12.8444 9.00002 13C9.00002 13.1555 8.96373 13.3089 8.89405 13.448L2.89405 25.448C2.83584 25.5664 2.75476 25.6721 2.65549 25.7591C2.55622 25.8461 2.44071 25.9125 2.31563 25.9546C2.19056 25.9967 2.05838 26.0137 1.92673 26.0044C1.79508 25.9952 1.66656 25.96 1.54857 25.9009C1.43058 25.8418 1.32546 25.7599 1.23928 25.6599C1.15309 25.56 1.08754 25.444 1.0464 25.3186C1.00527 25.1932 0.989358 25.0609 0.999596 24.9293C1.00983 24.7977 1.04601 24.6695 1.10605 24.552L6.88005 13L1.10605 1.44796C0.987244 1.21086 0.967486 0.936266 1.05113 0.684595C1.13477 0.432923 1.31495 0.224784 1.55205 0.105961Z" fill="#727B8B"/>
</svg>
