<svg width="9" height="27" viewBox="0 0 9 27" fill="none" xmlns="http://www.w3.org/2000/svg">
<path fill-rule="evenodd" clip-rule="evenodd" d="M7.44804 0.105161C7.68462 0.223988 7.86442 0.431777 7.94803 0.682971C8.03163 0.934164 8.01222 1.20826 7.89404 1.44516L2.12004 12.9992L7.89604 24.5512C7.95608 24.6687 7.99226 24.7969 8.0025 24.9285C8.01274 25.0601 7.99683 25.1924 7.95569 25.3178C7.91456 25.4432 7.849 25.5592 7.76282 25.6591C7.67663 25.7591 7.57151 25.841 7.45353 25.9001C7.33554 25.9592 7.20701 25.9944 7.07536 26.0036C6.94371 26.0129 6.81154 25.9959 6.68646 25.9538C6.56138 25.9117 6.44588 25.8453 6.34661 25.7583C6.24733 25.6714 6.16625 25.5656 6.10804 25.4472L0.108042 13.4472C0.0383589 13.3081 0.0020752 13.1547 0.0020752 12.9992C0.0020752 12.8436 0.0383589 12.6902 0.108042 12.5512L6.10804 0.551161C6.22687 0.314585 6.43466 0.134782 6.68585 0.0511761C6.93705 -0.03243 7.21114 -0.0130161 7.44804 0.105161Z" fill="#727B8B"/>
</svg>
