<svg width="104" height="104" viewBox="0 0 104 104" fill="none" xmlns="http://www.w3.org/2000/svg">
<path d="M16.2501 52C16.2491 45.7241 17.9002 39.5585 21.0376 34.123C24.1749 28.6876 28.6878 24.1738 34.1226 21.0354C39.5575 17.897 45.7228 16.2446 51.9987 16.2444C58.2746 16.2442 64.44 17.896 69.8751 21.034C70.6211 21.4582 71.5047 21.57 72.3329 21.3452C73.1612 21.1203 73.8668 20.577 74.296 19.8337C74.7251 19.0905 74.8428 18.2077 74.6234 17.378C74.4041 16.5483 73.8654 15.839 73.1251 15.405C65.0706 10.7548 55.7069 8.89213 46.486 10.1059C37.2651 11.3197 28.7024 15.5422 22.1258 22.1183C15.5491 28.6945 11.3262 37.257 10.1118 46.4778C8.89739 55.6986 10.7594 65.0625 15.4091 73.1172C20.0588 81.1719 27.2364 87.4674 35.8286 91.0272C44.4208 94.587 53.9475 95.2122 62.9312 92.806C71.915 90.3997 79.8538 85.0964 85.5164 77.7185C91.1789 70.3406 94.2489 61.3004 94.2501 52C94.2501 51.138 93.9077 50.3114 93.2982 49.7019C92.6887 49.0924 91.862 48.75 91.0001 48.75C90.1381 48.75 89.3115 49.0924 88.702 49.7019C88.0925 50.3114 87.7501 51.138 87.7501 52C87.7501 61.4815 83.9836 70.5746 77.2791 77.2791C70.5747 83.9835 61.4816 87.75 52.0001 87.75C42.5186 87.75 33.4254 83.9835 26.721 77.2791C20.0166 70.5746 16.2501 61.4815 16.2501 52Z" fill="#39404D"/>
<path d="M99.8012 21.801C100.103 21.4988 100.343 21.1401 100.507 20.7452C100.67 20.3504 100.754 19.9273 100.754 19.5C100.754 19.0726 100.67 18.6495 100.507 18.2547C100.343 17.8599 100.103 17.5011 99.8012 17.199C99.499 16.8968 99.1403 16.6571 98.7455 16.4936C98.3507 16.33 97.9275 16.2458 97.5002 16.2458C97.0729 16.2458 96.6497 16.33 96.2549 16.4936C95.8601 16.6571 95.5014 16.8968 95.1992 17.199L52.0002 60.4045L34.8012 43.199C34.499 42.8968 34.1403 42.6571 33.7455 42.4936C33.3507 42.33 32.9275 42.2458 32.5002 42.2458C32.0729 42.2458 31.6497 42.33 31.2549 42.4936C30.8601 42.6571 30.5014 42.8968 30.1992 43.199C29.897 43.5011 29.6573 43.8599 29.4938 44.2547C29.3303 44.6495 29.2461 45.0726 29.2461 45.5C29.2461 45.9273 29.3303 46.3504 29.4938 46.7452C29.6573 47.1401 29.897 47.4988 30.1992 47.801L49.6992 67.301C50.0011 67.6036 50.3597 67.8437 50.7546 68.0076C51.1494 68.1714 51.5727 68.2558 52.0002 68.2558C52.4277 68.2558 52.851 68.1714 53.2458 68.0076C53.6407 67.8437 53.9993 67.6036 54.3012 67.301L99.8012 21.801Z" fill="#489651"/>
</svg>
