<svg width="8" height="12" viewBox="0 0 8 12" fill="none" xmlns="http://www.w3.org/2000/svg">
<path fill-rule="evenodd" clip-rule="evenodd" d="M1.0653 0.440056C1.10594 0.399313 1.15422 0.366988 1.20737 0.344932C1.26052 0.322876 1.3175 0.311523 1.37505 0.311523C1.4326 0.311523 1.48958 0.322876 1.54273 0.344932C1.59588 0.366988 1.64416 0.399313 1.6848 0.440056L6.9348 5.69006C6.97554 5.7307 7.00787 5.77897 7.02992 5.83213C7.05198 5.88528 7.06333 5.94226 7.06333 5.99981C7.06333 6.05735 7.05198 6.11433 7.02992 6.16748C7.00787 6.22064 6.97554 6.26892 6.9348 6.30956L1.6848 11.5596C1.60265 11.6417 1.49123 11.6879 1.37505 11.6879C1.25887 11.6879 1.14745 11.6417 1.0653 11.5596C0.983149 11.4774 0.936997 11.366 0.936997 11.2498C0.936997 11.1336 0.983149 11.0222 1.0653 10.9401L6.00642 5.99981L1.0653 1.05956C1.02456 1.01892 0.992231 0.970637 0.970176 0.917485C0.94812 0.864333 0.936768 0.807352 0.936768 0.749806C0.936768 0.692259 0.94812 0.635278 0.970176 0.582126C0.992231 0.528974 1.02456 0.480696 1.0653 0.440056Z" fill="#272D37"/>
</svg>
